<?xml version="1.0" encoding="UTF-8" standalone="no"?>
<!DOCTYPE svg PUBLIC "-//W3C//DTD SVG 1.1//EN"
 "http://www.w3.org/Graphics/SVG/1.1/DTD/svg11.dtd">
<!-- Generated by graphviz version 5.0.0 (20220707.1540)
 -->
<!-- Title: dependencies Pages: 1 -->
<svg width="755pt" height="247pt"
 viewBox="0.00 0.00 755.00 246.80" xmlns="http://www.w3.org/2000/svg" xmlns:xlink="http://www.w3.org/1999/xlink">
<g id="graph0" class="graph" transform="scale(1 1) rotate(0) translate(4 242.8)">
<title>dependencies</title>
<polygon fill="white" stroke="transparent" points="-4,4 -4,-242.8 751,-242.8 751,4 -4,4"/>
<text text-anchor="middle" x="373.5" y="-8.2" font-family="sans-serif" font-size="14.00">dependencies</text>
<g id="clust1" class="cluster">
<title>cluster_SharedModule</title>
<polygon fill="none" stroke="black" stroke-dasharray="1,5" points="8,-32.8 8,-230.8 739,-230.8 739,-32.8 8,-32.8"/>
</g>
<g id="clust2" class="cluster">
<title>cluster_SharedModule_declarations</title>
<polygon fill="none" stroke="black" points="168,-40.8 168,-92.8 731,-92.8 731,-40.8 168,-40.8"/>
</g>
<g id="clust6" class="cluster">
<title>cluster_SharedModule_imports</title>
<polygon fill="none" stroke="black" points="16,-40.8 16,-92.8 160,-92.8 160,-40.8 16,-40.8"/>
</g>
<g id="clust7" class="cluster">
<title>cluster_SharedModule_exports</title>
<polygon fill="none" stroke="black" points="87,-170.8 87,-222.8 660,-222.8 660,-170.8 87,-170.8"/>
</g>
<!-- ErrorDisplayComponent -->
<g id="node1" class="node">
<title>ErrorDisplayComponent</title>
<polygon fill="#ffffb3" stroke="black" points="723.42,-84.8 568.58,-84.8 568.58,-48.8 723.42,-48.8 723.42,-84.8"/>
<text text-anchor="middle" x="646" y="-62.6" font-family="Times,serif" font-size="14.00">ErrorDisplayComponent</text>
</g>
<!-- SharedModule -->
<g id="node4" class="node">
<title>SharedModule</title>
<polygon fill="#8dd3c7" stroke="black" points="423.43,-149.8 420.43,-153.8 399.43,-153.8 396.43,-149.8 324.57,-149.8 324.57,-113.8 423.43,-113.8 423.43,-149.8"/>
<text text-anchor="middle" x="374" y="-127.6" font-family="Times,serif" font-size="14.00">SharedModule</text>
</g>
<!-- ErrorDisplayComponent&#45;&gt;SharedModule -->
<g id="edge1" class="edge">
<title>ErrorDisplayComponent&#45;&gt;SharedModule</title>
<path fill="none" stroke="black" d="M610.38,-84.82C610.38,-102.17 610.38,-125.8 610.38,-125.8 610.38,-125.8 433.26,-125.8 433.26,-125.8"/>
<polygon fill="black" stroke="black" points="433.26,-122.3 423.26,-125.8 433.26,-129.3 433.26,-122.3"/>
</g>
<!-- NewCandidateModalComponent -->
<g id="node2" class="node">
<title>NewCandidateModalComponent</title>
<polygon fill="#ffffb3" stroke="black" points="550.58,-84.8 349.42,-84.8 349.42,-48.8 550.58,-48.8 550.58,-84.8"/>
<text text-anchor="middle" x="450" y="-62.6" font-family="Times,serif" font-size="14.00">NewCandidateModalComponent</text>
</g>
<!-- NewCandidateModalComponent&#45;&gt;SharedModule -->
<g id="edge2" class="edge">
<title>NewCandidateModalComponent&#45;&gt;SharedModule</title>
<path fill="none" stroke="black" d="M386.34,-84.91C386.34,-84.91 386.34,-103.79 386.34,-103.79"/>
<polygon fill="black" stroke="black" points="382.84,-103.79 386.34,-113.79 389.84,-103.79 382.84,-103.79"/>
</g>
<!-- SignInModalComponent -->
<g id="node3" class="node">
<title>SignInModalComponent</title>
<polygon fill="#ffffb3" stroke="black" points="331.72,-84.8 176.28,-84.8 176.28,-48.8 331.72,-48.8 331.72,-84.8"/>
<text text-anchor="middle" x="254" y="-62.6" font-family="Times,serif" font-size="14.00">SignInModalComponent</text>
</g>
<!-- SignInModalComponent&#45;&gt;SharedModule -->
<g id="edge3" class="edge">
<title>SignInModalComponent&#45;&gt;SharedModule</title>
<path fill="none" stroke="black" d="M331.92,-66.8C337.24,-66.8 340.54,-66.8 340.54,-66.8 340.54,-66.8 340.54,-103.69 340.54,-103.69"/>
<polygon fill="black" stroke="black" points="337.04,-103.69 340.54,-113.69 344.04,-103.69 337.04,-103.69"/>
</g>
<!-- ErrorDisplayComponent  -->
<g id="node6" class="node">
<title>ErrorDisplayComponent </title>
<polygon fill="#fb8072" stroke="black" points="651.92,-214.8 494.08,-214.8 494.08,-178.8 651.92,-178.8 651.92,-214.8"/>
<text text-anchor="middle" x="573" y="-192.6" font-family="Times,serif" font-size="14.00">ErrorDisplayComponent </text>
</g>
<!-- SharedModule&#45;&gt;ErrorDisplayComponent  -->
<g id="edge5" class="edge">
<title>SharedModule&#45;&gt;ErrorDisplayComponent </title>
<path fill="none" stroke="black" stroke-dasharray="5,2" d="M423.38,-137.8C466.52,-137.8 522.29,-137.8 522.29,-137.8 522.29,-137.8 522.29,-168.78 522.29,-168.78"/>
<polygon fill="black" stroke="black" points="518.79,-168.78 522.29,-178.78 525.79,-168.78 518.79,-168.78"/>
</g>
<!-- NewCandidateModalComponent  -->
<g id="node7" class="node">
<title>NewCandidateModalComponent </title>
<polygon fill="#fb8072" stroke="black" points="476.08,-214.8 271.92,-214.8 271.92,-178.8 476.08,-178.8 476.08,-214.8"/>
<text text-anchor="middle" x="374" y="-192.6" font-family="Times,serif" font-size="14.00">NewCandidateModalComponent </text>
</g>
<!-- SharedModule&#45;&gt;NewCandidateModalComponent  -->
<g id="edge6" class="edge">
<title>SharedModule&#45;&gt;NewCandidateModalComponent </title>
<path fill="none" stroke="black" stroke-dasharray="5,2" d="M374,-149.91C374,-149.91 374,-168.79 374,-168.79"/>
<polygon fill="black" stroke="black" points="370.5,-168.79 374,-178.79 377.5,-168.79 370.5,-168.79"/>
</g>
<!-- SignInModalComponent  -->
<g id="node8" class="node">
<title>SignInModalComponent </title>
<polygon fill="#fb8072" stroke="black" points="253.22,-214.8 94.78,-214.8 94.78,-178.8 253.22,-178.8 253.22,-214.8"/>
<text text-anchor="middle" x="174" y="-192.6" font-family="Times,serif" font-size="14.00">SignInModalComponent </text>
</g>
<!-- SharedModule&#45;&gt;SignInModalComponent  -->
<g id="edge7" class="edge">
<title>SharedModule&#45;&gt;SignInModalComponent </title>
<path fill="none" stroke="black" stroke-dasharray="5,2" d="M324.52,-137.8C277.81,-137.8 214.88,-137.8 214.88,-137.8 214.88,-137.8 214.88,-168.78 214.88,-168.78"/>
<polygon fill="black" stroke="black" points="211.38,-168.78 214.88,-178.78 218.38,-168.78 211.38,-168.78"/>
</g>
<!-- AppRoutingModule -->
<g id="node5" class="node">
<title>AppRoutingModule</title>
<polygon fill="#8dd3c7" stroke="black" points="152.28,-84.8 149.28,-88.8 128.28,-88.8 125.28,-84.8 23.72,-84.8 23.72,-48.8 152.28,-48.8 152.28,-84.8"/>
<text text-anchor="middle" x="88" y="-62.6" font-family="Times,serif" font-size="14.00">AppRoutingModule</text>
</g>
<!-- AppRoutingModule&#45;&gt;SharedModule -->
<g id="edge4" class="edge">
<title>AppRoutingModule&#45;&gt;SharedModule</title>
<path fill="none" stroke="black" d="M123.51,-84.82C123.51,-102.17 123.51,-125.8 123.51,-125.8 123.51,-125.8 314.51,-125.8 314.51,-125.8"/>
<polygon fill="black" stroke="black" points="314.51,-129.3 324.51,-125.8 314.51,-122.3 314.51,-129.3"/>
</g>
</g>
</svg>
