<?xml version="1.0" encoding="UTF-8" standalone="no"?>
<!DOCTYPE svg PUBLIC "-//W3C//DTD SVG 1.1//EN"
 "http://www.w3.org/Graphics/SVG/1.1/DTD/svg11.dtd">
<!-- Generated by graphviz version 5.0.0 (20220707.1540)
 -->
<!-- Title: dependencies Pages: 1 -->
<svg width="330pt" height="247pt"
 viewBox="0.00 0.00 330.00 246.80" xmlns="http://www.w3.org/2000/svg" xmlns:xlink="http://www.w3.org/1999/xlink">
<g id="graph0" class="graph" transform="scale(1 1) rotate(0) translate(4 242.8)">
<title>dependencies</title>
<polygon fill="white" stroke="transparent" points="-4,4 -4,-242.8 326,-242.8 326,4 -4,4"/>
<text text-anchor="middle" x="161" y="-8.2" font-family="sans-serif" font-size="14.00">dependencies</text>
<g id="clust1" class="cluster">
<title>cluster_SystemModule</title>
<polygon fill="none" stroke="black" stroke-dasharray="1,5" points="8,-32.8 8,-230.8 314,-230.8 314,-32.8 8,-32.8"/>
</g>
<g id="clust2" class="cluster">
<title>cluster_SystemModule_declarations</title>
<polygon fill="none" stroke="black" points="168,-40.8 168,-92.8 306,-92.8 306,-40.8 168,-40.8"/>
</g>
<g id="clust4" class="cluster">
<title>cluster_SystemModule_imports</title>
<polygon fill="none" stroke="black" points="16,-40.8 16,-92.8 160,-92.8 160,-40.8 16,-40.8"/>
</g>
<g id="clust5" class="cluster">
<title>cluster_SystemModule_exports</title>
<polygon fill="none" stroke="black" points="90,-170.8 90,-222.8 232,-222.8 232,-170.8 90,-170.8"/>
</g>
<!-- NavbarComponent -->
<g id="node1" class="node">
<title>NavbarComponent</title>
<polygon fill="#ffffb3" stroke="black" points="298.03,-84.8 175.97,-84.8 175.97,-48.8 298.03,-48.8 298.03,-84.8"/>
<text text-anchor="middle" x="237" y="-62.6" font-family="Times,serif" font-size="14.00">NavbarComponent</text>
</g>
<!-- SystemModule -->
<g id="node2" class="node">
<title>SystemModule</title>
<polygon fill="#8dd3c7" stroke="black" points="211.28,-149.8 208.28,-153.8 187.28,-153.8 184.28,-149.8 110.72,-149.8 110.72,-113.8 211.28,-113.8 211.28,-149.8"/>
<text text-anchor="middle" x="161" y="-127.6" font-family="Times,serif" font-size="14.00">SystemModule</text>
</g>
<!-- NavbarComponent&#45;&gt;SystemModule -->
<g id="edge1" class="edge">
<title>NavbarComponent&#45;&gt;SystemModule</title>
<path fill="none" stroke="black" d="M193.56,-84.91C193.56,-84.91 193.56,-103.79 193.56,-103.79"/>
<polygon fill="black" stroke="black" points="190.06,-103.79 193.56,-113.79 197.06,-103.79 190.06,-103.79"/>
</g>
<!-- NavbarComponent  -->
<g id="node4" class="node">
<title>NavbarComponent </title>
<polygon fill="#fb8072" stroke="black" points="224.03,-214.8 97.97,-214.8 97.97,-178.8 224.03,-178.8 224.03,-214.8"/>
<text text-anchor="middle" x="161" y="-192.6" font-family="Times,serif" font-size="14.00">NavbarComponent </text>
</g>
<!-- SystemModule&#45;&gt;NavbarComponent  -->
<g id="edge3" class="edge">
<title>SystemModule&#45;&gt;NavbarComponent </title>
<path fill="none" stroke="black" stroke-dasharray="5,2" d="M161,-149.91C161,-149.91 161,-168.79 161,-168.79"/>
<polygon fill="black" stroke="black" points="157.5,-168.79 161,-178.79 164.5,-168.79 157.5,-168.79"/>
</g>
<!-- AppRoutingModule -->
<g id="node3" class="node">
<title>AppRoutingModule</title>
<polygon fill="#8dd3c7" stroke="black" points="152.28,-84.8 149.28,-88.8 128.28,-88.8 125.28,-84.8 23.72,-84.8 23.72,-48.8 152.28,-48.8 152.28,-84.8"/>
<text text-anchor="middle" x="88" y="-62.6" font-family="Times,serif" font-size="14.00">AppRoutingModule</text>
</g>
<!-- AppRoutingModule&#45;&gt;SystemModule -->
<g id="edge2" class="edge">
<title>AppRoutingModule&#45;&gt;SystemModule</title>
<path fill="none" stroke="black" d="M131.5,-84.91C131.5,-84.91 131.5,-103.79 131.5,-103.79"/>
<polygon fill="black" stroke="black" points="128,-103.79 131.5,-113.79 135,-103.79 128,-103.79"/>
</g>
</g>
</svg>
