<?xml version="1.0" encoding="UTF-8" standalone="no"?>
<!DOCTYPE svg PUBLIC "-//W3C//DTD SVG 1.1//EN"
 "http://www.w3.org/Graphics/SVG/1.1/DTD/svg11.dtd">
<!-- Generated by graphviz version 5.0.0 (20220707.1540)
 -->
<!-- Title: dependencies Pages: 1 -->
<svg width="933pt" height="247pt"
 viewBox="0.00 0.00 933.00 246.80" xmlns="http://www.w3.org/2000/svg" xmlns:xlink="http://www.w3.org/1999/xlink">
<g id="graph0" class="graph" transform="scale(1 1) rotate(0) translate(4 242.8)">
<title>dependencies</title>
<polygon fill="white" stroke="transparent" points="-4,4 -4,-242.8 929,-242.8 929,4 -4,4"/>
<text text-anchor="middle" x="462.5" y="-8.2" font-family="sans-serif" font-size="14.00">dependencies</text>
<g id="clust1" class="cluster">
<title>cluster_CandidateModule</title>
<polygon fill="none" stroke="black" stroke-dasharray="1,5" points="8,-32.8 8,-230.8 917,-230.8 917,-32.8 8,-32.8"/>
</g>
<g id="clust7" class="cluster">
<title>cluster_CandidateModule_exports</title>
<polygon fill="none" stroke="black" points="256,-170.8 256,-222.8 771,-222.8 771,-170.8 256,-170.8"/>
</g>
<g id="clust6" class="cluster">
<title>cluster_CandidateModule_imports</title>
<polygon fill="none" stroke="black" points="529,-40.8 529,-92.8 909,-92.8 909,-40.8 529,-40.8"/>
</g>
<g id="clust2" class="cluster">
<title>cluster_CandidateModule_declarations</title>
<polygon fill="none" stroke="black" points="16,-40.8 16,-92.8 521,-92.8 521,-40.8 16,-40.8"/>
</g>
<!-- ActionsBarComponent -->
<g id="node1" class="node">
<title>ActionsBarComponent</title>
<polygon fill="#ffffb3" stroke="black" points="512.6,-84.8 367.4,-84.8 367.4,-48.8 512.6,-48.8 512.6,-84.8"/>
<text text-anchor="middle" x="440" y="-62.6" font-family="Times,serif" font-size="14.00">ActionsBarComponent</text>
</g>
<!-- CandidateModule -->
<g id="node4" class="node">
<title>CandidateModule</title>
<polygon fill="#8dd3c7" stroke="black" points="571.31,-149.8 568.31,-153.8 547.31,-153.8 544.31,-149.8 454.69,-149.8 454.69,-113.8 571.31,-113.8 571.31,-149.8"/>
<text text-anchor="middle" x="513" y="-127.6" font-family="Times,serif" font-size="14.00">CandidateModule</text>
</g>
<!-- ActionsBarComponent&#45;&gt;CandidateModule -->
<g id="edge1" class="edge">
<title>ActionsBarComponent&#45;&gt;CandidateModule</title>
<path fill="none" stroke="black" d="M483.7,-84.91C483.7,-84.91 483.7,-103.79 483.7,-103.79"/>
<polygon fill="black" stroke="black" points="480.2,-103.79 483.7,-113.79 487.2,-103.79 480.2,-103.79"/>
</g>
<!-- CandidateItemComponent -->
<g id="node2" class="node">
<title>CandidateItemComponent</title>
<polygon fill="#ffffb3" stroke="black" points="349.75,-84.8 186.25,-84.8 186.25,-48.8 349.75,-48.8 349.75,-84.8"/>
<text text-anchor="middle" x="268" y="-62.6" font-family="Times,serif" font-size="14.00">CandidateItemComponent</text>
</g>
<!-- CandidateItemComponent&#45;&gt;CandidateModule -->
<g id="edge2" class="edge">
<title>CandidateItemComponent&#45;&gt;CandidateModule</title>
<path fill="none" stroke="black" d="M307.18,-84.83C307.18,-101.2 307.18,-122.8 307.18,-122.8 307.18,-122.8 444.84,-122.8 444.84,-122.8"/>
<polygon fill="black" stroke="black" points="444.84,-126.3 454.84,-122.8 444.84,-119.3 444.84,-126.3"/>
</g>
<!-- CandidatesComponent -->
<g id="node3" class="node">
<title>CandidatesComponent</title>
<polygon fill="#ffffb3" stroke="black" points="167.54,-84.8 24.46,-84.8 24.46,-48.8 167.54,-48.8 167.54,-84.8"/>
<text text-anchor="middle" x="96" y="-62.6" font-family="Times,serif" font-size="14.00">CandidatesComponent</text>
</g>
<!-- CandidatesComponent&#45;&gt;CandidateModule -->
<g id="edge3" class="edge">
<title>CandidatesComponent&#45;&gt;CandidateModule</title>
<path fill="none" stroke="black" d="M96,-84.91C96,-104.14 96,-131.8 96,-131.8 96,-131.8 444.58,-131.8 444.58,-131.8"/>
<polygon fill="black" stroke="black" points="444.58,-135.3 454.58,-131.8 444.58,-128.3 444.58,-135.3"/>
</g>
<!-- ActionsBarComponent  -->
<g id="node8" class="node">
<title>ActionsBarComponent </title>
<polygon fill="#fb8072" stroke="black" points="763.1,-214.8 614.9,-214.8 614.9,-178.8 763.1,-178.8 763.1,-214.8"/>
<text text-anchor="middle" x="689" y="-192.6" font-family="Times,serif" font-size="14.00">ActionsBarComponent </text>
</g>
<!-- CandidateModule&#45;&gt;ActionsBarComponent  -->
<g id="edge7" class="edge">
<title>CandidateModule&#45;&gt;ActionsBarComponent </title>
<path fill="none" stroke="black" stroke-dasharray="5,2" d="M571.18,-140.8C598.88,-140.8 626.05,-140.8 626.05,-140.8 626.05,-140.8 626.05,-168.77 626.05,-168.77"/>
<polygon fill="black" stroke="black" points="622.55,-168.77 626.05,-178.77 629.55,-168.77 622.55,-168.77"/>
</g>
<!-- CandidateItemComponent  -->
<g id="node9" class="node">
<title>CandidateItemComponent </title>
<polygon fill="#fb8072" stroke="black" points="596.75,-214.8 429.25,-214.8 429.25,-178.8 596.75,-178.8 596.75,-214.8"/>
<text text-anchor="middle" x="513" y="-192.6" font-family="Times,serif" font-size="14.00">CandidateItemComponent </text>
</g>
<!-- CandidateModule&#45;&gt;CandidateItemComponent  -->
<g id="edge8" class="edge">
<title>CandidateModule&#45;&gt;CandidateItemComponent </title>
<path fill="none" stroke="black" stroke-dasharray="5,2" d="M513,-149.91C513,-149.91 513,-168.79 513,-168.79"/>
<polygon fill="black" stroke="black" points="509.5,-168.79 513,-178.79 516.5,-168.79 509.5,-168.79"/>
</g>
<!-- CandidatesComponent  -->
<g id="node10" class="node">
<title>CandidatesComponent </title>
<polygon fill="#fb8072" stroke="black" points="411.54,-214.8 264.46,-214.8 264.46,-178.8 411.54,-178.8 411.54,-214.8"/>
<text text-anchor="middle" x="338" y="-192.6" font-family="Times,serif" font-size="14.00">CandidatesComponent </text>
</g>
<!-- CandidateModule&#45;&gt;CandidatesComponent  -->
<g id="edge9" class="edge">
<title>CandidateModule&#45;&gt;CandidatesComponent </title>
<path fill="none" stroke="black" stroke-dasharray="5,2" d="M454.5,-140.8C422.57,-140.8 389.49,-140.8 389.49,-140.8 389.49,-140.8 389.49,-168.77 389.49,-168.77"/>
<polygon fill="black" stroke="black" points="385.99,-168.77 389.49,-178.77 392.99,-168.77 385.99,-168.77"/>
</g>
<!-- AppRoutingModule -->
<g id="node5" class="node">
<title>AppRoutingModule</title>
<polygon fill="#8dd3c7" stroke="black" points="901.28,-84.8 898.28,-88.8 877.28,-88.8 874.28,-84.8 772.72,-84.8 772.72,-48.8 901.28,-48.8 901.28,-84.8"/>
<text text-anchor="middle" x="837" y="-62.6" font-family="Times,serif" font-size="14.00">AppRoutingModule</text>
</g>
<!-- AppRoutingModule&#45;&gt;CandidateModule -->
<g id="edge4" class="edge">
<title>AppRoutingModule&#45;&gt;CandidateModule</title>
<path fill="none" stroke="black" d="M837,-84.91C837,-104.14 837,-131.8 837,-131.8 837,-131.8 581.3,-131.8 581.3,-131.8"/>
<polygon fill="black" stroke="black" points="581.3,-128.3 571.3,-131.8 581.3,-135.3 581.3,-128.3"/>
</g>
<!-- SharedModule -->
<g id="node6" class="node">
<title>SharedModule</title>
<polygon fill="#8dd3c7" stroke="black" points="754.43,-84.8 751.43,-88.8 730.43,-88.8 727.43,-84.8 655.57,-84.8 655.57,-48.8 754.43,-48.8 754.43,-84.8"/>
<text text-anchor="middle" x="705" y="-62.6" font-family="Times,serif" font-size="14.00">SharedModule</text>
</g>
<!-- SharedModule&#45;&gt;CandidateModule -->
<g id="edge5" class="edge">
<title>SharedModule&#45;&gt;CandidateModule</title>
<path fill="none" stroke="black" d="M705,-84.83C705,-101.2 705,-122.8 705,-122.8 705,-122.8 581.39,-122.8 581.39,-122.8"/>
<polygon fill="black" stroke="black" points="581.39,-119.3 571.39,-122.8 581.39,-126.3 581.39,-119.3"/>
</g>
<!-- SystemModule -->
<g id="node7" class="node">
<title>SystemModule</title>
<polygon fill="#8dd3c7" stroke="black" points="637.28,-84.8 634.28,-88.8 613.28,-88.8 610.28,-84.8 536.72,-84.8 536.72,-48.8 637.28,-48.8 637.28,-84.8"/>
<text text-anchor="middle" x="587" y="-62.6" font-family="Times,serif" font-size="14.00">SystemModule</text>
</g>
<!-- SystemModule&#45;&gt;CandidateModule -->
<g id="edge6" class="edge">
<title>SystemModule&#45;&gt;CandidateModule</title>
<path fill="none" stroke="black" d="M553.88,-84.91C553.88,-84.91 553.88,-103.79 553.88,-103.79"/>
<polygon fill="black" stroke="black" points="550.38,-103.79 553.88,-113.79 557.38,-103.79 550.38,-103.79"/>
</g>
</g>
</svg>
