<?xml version="1.0" encoding="UTF-8" standalone="no"?>
<!DOCTYPE svg PUBLIC "-//W3C//DTD SVG 1.1//EN"
 "http://www.w3.org/Graphics/SVG/1.1/DTD/svg11.dtd">
<!-- Generated by graphviz version 5.0.0 (20220707.1540)
 -->
<!-- Title: dependencies Pages: 1 -->
<svg width="1141pt" height="247pt"
 viewBox="0.00 0.00 1141.00 246.80" xmlns="http://www.w3.org/2000/svg" xmlns:xlink="http://www.w3.org/1999/xlink">
<g id="graph0" class="graph" transform="scale(1 1) rotate(0) translate(4 242.8)">
<title>dependencies</title>
<polygon fill="white" stroke="transparent" points="-4,4 -4,-242.8 1137,-242.8 1137,4 -4,4"/>
<text text-anchor="middle" x="566.5" y="-8.2" font-family="sans-serif" font-size="14.00">dependencies</text>
<g id="clust1" class="cluster">
<title>cluster_MergeModule</title>
<polygon fill="none" stroke="black" stroke-dasharray="1,5" points="8,-32.8 8,-230.8 1125,-230.8 1125,-32.8 8,-32.8"/>
</g>
<g id="clust7" class="cluster">
<title>cluster_MergeModule_imports</title>
<polygon fill="none" stroke="black" points="737,-40.8 737,-92.8 1117,-92.8 1117,-40.8 737,-40.8"/>
</g>
<g id="clust8" class="cluster">
<title>cluster_MergeModule_exports</title>
<polygon fill="none" stroke="black" points="548,-170.8 548,-222.8 712,-222.8 712,-170.8 548,-170.8"/>
</g>
<g id="clust2" class="cluster">
<title>cluster_MergeModule_declarations</title>
<polygon fill="none" stroke="black" points="16,-40.8 16,-92.8 729,-92.8 729,-40.8 16,-40.8"/>
</g>
<!-- ActionsBarMergeComponent -->
<g id="node1" class="node">
<title>ActionsBarMergeComponent</title>
<polygon fill="#ffffb3" stroke="black" points="720.64,-84.8 539.36,-84.8 539.36,-48.8 720.64,-48.8 720.64,-84.8"/>
<text text-anchor="middle" x="630" y="-62.6" font-family="Times,serif" font-size="14.00">ActionsBarMergeComponent</text>
</g>
<!-- MergeModule -->
<g id="node5" class="node">
<title>MergeModule</title>
<polygon fill="#8dd3c7" stroke="black" points="678.09,-149.8 675.09,-153.8 654.09,-153.8 651.09,-149.8 581.91,-149.8 581.91,-113.8 678.09,-113.8 678.09,-149.8"/>
<text text-anchor="middle" x="630" y="-127.6" font-family="Times,serif" font-size="14.00">MergeModule</text>
</g>
<!-- ActionsBarMergeComponent&#45;&gt;MergeModule -->
<g id="edge1" class="edge">
<title>ActionsBarMergeComponent&#45;&gt;MergeModule</title>
<path fill="none" stroke="black" d="M630,-84.91C630,-84.91 630,-103.79 630,-103.79"/>
<polygon fill="black" stroke="black" points="626.5,-103.79 630,-113.79 633.5,-103.79 626.5,-103.79"/>
</g>
<!-- MergeCandidateComponent -->
<g id="node2" class="node">
<title>MergeCandidateComponent</title>
<polygon fill="#ffffb3" stroke="black" points="521.13,-84.8 346.87,-84.8 346.87,-48.8 521.13,-48.8 521.13,-84.8"/>
<text text-anchor="middle" x="434" y="-62.6" font-family="Times,serif" font-size="14.00">MergeCandidateComponent</text>
</g>
<!-- MergeCandidateComponent&#45;&gt;MergeModule -->
<g id="edge2" class="edge">
<title>MergeCandidateComponent&#45;&gt;MergeModule</title>
<path fill="none" stroke="black" d="M434,-84.83C434,-101.2 434,-122.8 434,-122.8 434,-122.8 571.8,-122.8 571.8,-122.8"/>
<polygon fill="black" stroke="black" points="571.8,-126.3 581.8,-122.8 571.8,-119.3 571.8,-126.3"/>
</g>
<!-- MergeCellComponent -->
<g id="node3" class="node">
<title>MergeCellComponent</title>
<polygon fill="#ffffb3" stroke="black" points="328.7,-84.8 187.3,-84.8 187.3,-48.8 328.7,-48.8 328.7,-84.8"/>
<text text-anchor="middle" x="258" y="-62.6" font-family="Times,serif" font-size="14.00">MergeCellComponent</text>
</g>
<!-- MergeCellComponent&#45;&gt;MergeModule -->
<g id="edge3" class="edge">
<title>MergeCellComponent&#45;&gt;MergeModule</title>
<path fill="none" stroke="black" d="M258,-84.91C258,-104.14 258,-131.8 258,-131.8 258,-131.8 571.75,-131.8 571.75,-131.8"/>
<polygon fill="black" stroke="black" points="571.75,-135.3 581.75,-131.8 571.75,-128.3 571.75,-135.3"/>
</g>
<!-- MergePageComponent -->
<g id="node4" class="node">
<title>MergePageComponent</title>
<polygon fill="#ffffb3" stroke="black" points="169.58,-84.8 24.42,-84.8 24.42,-48.8 169.58,-48.8 169.58,-84.8"/>
<text text-anchor="middle" x="97" y="-62.6" font-family="Times,serif" font-size="14.00">MergePageComponent</text>
</g>
<!-- MergePageComponent&#45;&gt;MergeModule -->
<g id="edge4" class="edge">
<title>MergePageComponent&#45;&gt;MergeModule</title>
<path fill="none" stroke="black" d="M97,-85.09C97,-107.01 97,-140.8 97,-140.8 97,-140.8 571.76,-140.8 571.76,-140.8"/>
<polygon fill="black" stroke="black" points="571.76,-144.3 581.76,-140.8 571.76,-137.3 571.76,-144.3"/>
</g>
<!-- MergePageComponent  -->
<g id="node9" class="node">
<title>MergePageComponent </title>
<polygon fill="#fb8072" stroke="black" points="704.08,-214.8 555.92,-214.8 555.92,-178.8 704.08,-178.8 704.08,-214.8"/>
<text text-anchor="middle" x="630" y="-192.6" font-family="Times,serif" font-size="14.00">MergePageComponent </text>
</g>
<!-- MergeModule&#45;&gt;MergePageComponent  -->
<g id="edge8" class="edge">
<title>MergeModule&#45;&gt;MergePageComponent </title>
<path fill="none" stroke="black" stroke-dasharray="5,2" d="M630,-149.91C630,-149.91 630,-168.79 630,-168.79"/>
<polygon fill="black" stroke="black" points="626.5,-168.79 630,-178.79 633.5,-168.79 626.5,-168.79"/>
</g>
<!-- AppRoutingModule -->
<g id="node6" class="node">
<title>AppRoutingModule</title>
<polygon fill="#8dd3c7" stroke="black" points="1109.28,-84.8 1106.28,-88.8 1085.28,-88.8 1082.28,-84.8 980.72,-84.8 980.72,-48.8 1109.28,-48.8 1109.28,-84.8"/>
<text text-anchor="middle" x="1045" y="-62.6" font-family="Times,serif" font-size="14.00">AppRoutingModule</text>
</g>
<!-- AppRoutingModule&#45;&gt;MergeModule -->
<g id="edge5" class="edge">
<title>AppRoutingModule&#45;&gt;MergeModule</title>
<path fill="none" stroke="black" d="M1045,-85.09C1045,-107.01 1045,-140.8 1045,-140.8 1045,-140.8 688.42,-140.8 688.42,-140.8"/>
<polygon fill="black" stroke="black" points="688.42,-137.3 678.42,-140.8 688.42,-144.3 688.42,-137.3"/>
</g>
<!-- SharedModule -->
<g id="node7" class="node">
<title>SharedModule</title>
<polygon fill="#8dd3c7" stroke="black" points="962.43,-84.8 959.43,-88.8 938.43,-88.8 935.43,-84.8 863.57,-84.8 863.57,-48.8 962.43,-48.8 962.43,-84.8"/>
<text text-anchor="middle" x="913" y="-62.6" font-family="Times,serif" font-size="14.00">SharedModule</text>
</g>
<!-- SharedModule&#45;&gt;MergeModule -->
<g id="edge6" class="edge">
<title>SharedModule&#45;&gt;MergeModule</title>
<path fill="none" stroke="black" d="M913,-84.91C913,-104.14 913,-131.8 913,-131.8 913,-131.8 688.33,-131.8 688.33,-131.8"/>
<polygon fill="black" stroke="black" points="688.33,-128.3 678.33,-131.8 688.33,-135.3 688.33,-128.3"/>
</g>
<!-- SystemModule -->
<g id="node8" class="node">
<title>SystemModule</title>
<polygon fill="#8dd3c7" stroke="black" points="845.28,-84.8 842.28,-88.8 821.28,-88.8 818.28,-84.8 744.72,-84.8 744.72,-48.8 845.28,-48.8 845.28,-84.8"/>
<text text-anchor="middle" x="795" y="-62.6" font-family="Times,serif" font-size="14.00">SystemModule</text>
</g>
<!-- SystemModule&#45;&gt;MergeModule -->
<g id="edge7" class="edge">
<title>SystemModule&#45;&gt;MergeModule</title>
<path fill="none" stroke="black" d="M795,-84.83C795,-101.2 795,-122.8 795,-122.8 795,-122.8 688.17,-122.8 688.17,-122.8"/>
<polygon fill="black" stroke="black" points="688.17,-119.3 678.17,-122.8 688.17,-126.3 688.17,-119.3"/>
</g>
</g>
</svg>
