<?xml version="1.0" encoding="UTF-8" standalone="no"?>
<!DOCTYPE svg PUBLIC "-//W3C//DTD SVG 1.1//EN"
 "http://www.w3.org/Graphics/SVG/1.1/DTD/svg11.dtd">
<!-- Generated by graphviz version 5.0.0 (20220707.1540)
 -->
<!-- Title: dependencies Pages: 1 -->
<svg width="2139pt" height="312pt"
 viewBox="0.00 0.00 2139.00 311.80" xmlns="http://www.w3.org/2000/svg" xmlns:xlink="http://www.w3.org/1999/xlink">
<g id="graph0" class="graph" transform="scale(1 1) rotate(0) translate(4 307.8)">
<title>dependencies</title>
<polygon fill="white" stroke="transparent" points="-4,4 -4,-307.8 2135,-307.8 2135,4 -4,4"/>
<text text-anchor="middle" x="1065.5" y="-8.2" font-family="sans-serif" font-size="14.00">dependencies</text>
<g id="clust1" class="cluster">
<title>cluster_CandidateDetailModule</title>
<polygon fill="none" stroke="black" stroke-dasharray="1,5" points="8,-32.8 8,-295.8 2123,-295.8 2123,-32.8 8,-32.8"/>
</g>
<g id="clust6" class="cluster">
<title>cluster_CandidateDetailModule_CandidateDetailComponent_providers</title>
<polygon fill="none" stroke="black" points="1893,-40.8 1893,-157.8 2115,-157.8 2115,-40.8 1893,-40.8"/>
</g>
<g id="clust2" class="cluster">
<title>cluster_CandidateDetailModule_declarations</title>
<polygon fill="none" stroke="black" points="168,-105.8 168,-157.8 1885,-157.8 1885,-105.8 168,-105.8"/>
</g>
<g id="clust12" class="cluster">
<title>cluster_CandidateDetailModule_imports</title>
<polygon fill="none" stroke="black" points="16,-105.8 16,-157.8 160,-157.8 160,-105.8 16,-105.8"/>
</g>
<g id="clust13" class="cluster">
<title>cluster_CandidateDetailModule_exports</title>
<polygon fill="none" stroke="black" points="205,-235.8 205,-287.8 1895,-287.8 1895,-235.8 205,-235.8"/>
</g>
<!-- AddCommentModalComponent -->
<g id="node1" class="node">
<title>AddCommentModalComponent</title>
<polygon fill="#ffffb3" stroke="black" points="1876.71,-149.8 1679.29,-149.8 1679.29,-113.8 1876.71,-113.8 1876.71,-149.8"/>
<text text-anchor="middle" x="1778" y="-127.6" font-family="Times,serif" font-size="14.00">AddCommentModalComponent</text>
</g>
<!-- CandidateDetailModule -->
<g id="node10" class="node">
<title>CandidateDetailModule</title>
<polygon fill="#8dd3c7" stroke="black" points="1107.02,-214.8 1104.02,-218.8 1083.02,-218.8 1080.02,-214.8 956.98,-214.8 956.98,-178.8 1107.02,-178.8 1107.02,-214.8"/>
<text text-anchor="middle" x="1032" y="-192.6" font-family="Times,serif" font-size="14.00">CandidateDetailModule</text>
</g>
<!-- AddCommentModalComponent&#45;&gt;CandidateDetailModule -->
<g id="edge1" class="edge">
<title>AddCommentModalComponent&#45;&gt;CandidateDetailModule</title>
<path fill="none" stroke="black" d="M1683.02,-150.1C1683.02,-168.07 1683.02,-192.8 1683.02,-192.8 1683.02,-192.8 1117.32,-192.8 1117.32,-192.8"/>
<polygon fill="black" stroke="black" points="1117.32,-189.3 1107.32,-192.8 1117.32,-196.3 1117.32,-189.3"/>
</g>
<!-- CandidateActionComponent -->
<g id="node2" class="node">
<title>CandidateActionComponent</title>
<polygon fill="#ffffb3" stroke="black" points="1661.19,-149.8 1484.81,-149.8 1484.81,-113.8 1661.19,-113.8 1661.19,-149.8"/>
<text text-anchor="middle" x="1573" y="-127.6" font-family="Times,serif" font-size="14.00">CandidateActionComponent</text>
</g>
<!-- CandidateActionComponent&#45;&gt;CandidateDetailModule -->
<g id="edge2" class="edge">
<title>CandidateActionComponent&#45;&gt;CandidateDetailModule</title>
<path fill="none" stroke="black" d="M1603.78,-149.83C1603.78,-166.2 1603.78,-187.8 1603.78,-187.8 1603.78,-187.8 1117.04,-187.8 1117.04,-187.8"/>
<polygon fill="black" stroke="black" points="1117.04,-184.3 1107.04,-187.8 1117.04,-191.3 1117.04,-184.3"/>
</g>
<!-- CandidateCommunicationsComponent -->
<g id="node3" class="node">
<title>CandidateCommunicationsComponent</title>
<polygon fill="#ffffb3" stroke="black" points="1466.75,-149.8 1233.25,-149.8 1233.25,-113.8 1466.75,-113.8 1466.75,-149.8"/>
<text text-anchor="middle" x="1350" y="-127.6" font-family="Times,serif" font-size="14.00">CandidateCommunicationsComponent</text>
</g>
<!-- CandidateCommunicationsComponent&#45;&gt;CandidateDetailModule -->
<g id="edge3" class="edge">
<title>CandidateCommunicationsComponent&#45;&gt;CandidateDetailModule</title>
<path fill="none" stroke="black" d="M1389.38,-149.99C1389.38,-164.98 1389.38,-183.8 1389.38,-183.8 1389.38,-183.8 1117.35,-183.8 1117.35,-183.8"/>
<polygon fill="black" stroke="black" points="1117.35,-180.3 1107.35,-183.8 1117.35,-187.3 1117.35,-180.3"/>
</g>
<!-- CandidateDetailComponent -->
<g id="node4" class="node">
<title>CandidateDetailComponent</title>
<polygon fill="#ffffb3" stroke="black" points="2081.3,-149.8 1908.7,-149.8 1908.7,-113.8 2081.3,-113.8 2081.3,-149.8"/>
<text text-anchor="middle" x="1995" y="-127.6" font-family="Times,serif" font-size="14.00">CandidateDetailComponent</text>
</g>
<!-- CandidateDetailComponent&#45;&gt;CandidateDetailModule -->
<g id="edge4" class="edge">
<title>CandidateDetailComponent&#45;&gt;CandidateDetailModule</title>
<path fill="none" stroke="black" d="M1995,-149.91C1995,-169.14 1995,-196.8 1995,-196.8 1995,-196.8 1117.16,-196.8 1117.16,-196.8"/>
<polygon fill="black" stroke="black" points="1117.16,-193.3 1107.16,-196.8 1117.16,-200.3 1117.16,-193.3"/>
</g>
<!-- CandidateFormComponent -->
<g id="node5" class="node">
<title>CandidateFormComponent</title>
<polygon fill="#ffffb3" stroke="black" points="1215.43,-149.8 1046.57,-149.8 1046.57,-113.8 1215.43,-113.8 1215.43,-149.8"/>
<text text-anchor="middle" x="1131" y="-127.6" font-family="Times,serif" font-size="14.00">CandidateFormComponent</text>
</g>
<!-- CandidateFormComponent&#45;&gt;CandidateDetailModule -->
<g id="edge6" class="edge">
<title>CandidateFormComponent&#45;&gt;CandidateDetailModule</title>
<path fill="none" stroke="black" d="M1077.02,-149.91C1077.02,-149.91 1077.02,-168.79 1077.02,-168.79"/>
<polygon fill="black" stroke="black" points="1073.52,-168.79 1077.02,-178.79 1080.52,-168.79 1073.52,-168.79"/>
</g>
<!-- CandidateMainInfoComponent -->
<g id="node6" class="node">
<title>CandidateMainInfoComponent</title>
<polygon fill="#ffffb3" stroke="black" points="1028.47,-149.8 837.53,-149.8 837.53,-113.8 1028.47,-113.8 1028.47,-149.8"/>
<text text-anchor="middle" x="933" y="-127.6" font-family="Times,serif" font-size="14.00">CandidateMainInfoComponent</text>
</g>
<!-- CandidateMainInfoComponent&#45;&gt;CandidateDetailModule -->
<g id="edge7" class="edge">
<title>CandidateMainInfoComponent&#45;&gt;CandidateDetailModule</title>
<path fill="none" stroke="black" d="M992.61,-149.91C992.61,-149.91 992.61,-168.79 992.61,-168.79"/>
<polygon fill="black" stroke="black" points="989.11,-168.79 992.61,-178.79 996.11,-168.79 989.11,-168.79"/>
</g>
<!-- CandidateUpdatesComponent -->
<g id="node7" class="node">
<title>CandidateUpdatesComponent</title>
<polygon fill="#ffffb3" stroke="black" points="819.97,-149.8 636.03,-149.8 636.03,-113.8 819.97,-113.8 819.97,-149.8"/>
<text text-anchor="middle" x="728" y="-127.6" font-family="Times,serif" font-size="14.00">CandidateUpdatesComponent</text>
</g>
<!-- CandidateUpdatesComponent&#45;&gt;CandidateDetailModule -->
<g id="edge8" class="edge">
<title>CandidateUpdatesComponent&#45;&gt;CandidateDetailModule</title>
<path fill="none" stroke="black" d="M728.88,-149.99C728.88,-164.98 728.88,-183.8 728.88,-183.8 728.88,-183.8 946.68,-183.8 946.68,-183.8"/>
<polygon fill="black" stroke="black" points="946.68,-187.3 956.68,-183.8 946.68,-180.3 946.68,-187.3"/>
</g>
<!-- CommunicationCommentComponent -->
<g id="node8" class="node">
<title>CommunicationCommentComponent</title>
<polygon fill="#ffffb3" stroke="black" points="618.27,-149.8 391.73,-149.8 391.73,-113.8 618.27,-113.8 618.27,-149.8"/>
<text text-anchor="middle" x="505" y="-127.6" font-family="Times,serif" font-size="14.00">CommunicationCommentComponent</text>
</g>
<!-- CommunicationCommentComponent&#45;&gt;CandidateDetailModule -->
<g id="edge9" class="edge">
<title>CommunicationCommentComponent&#45;&gt;CandidateDetailModule</title>
<path fill="none" stroke="black" d="M494.31,-149.83C494.31,-166.2 494.31,-187.8 494.31,-187.8 494.31,-187.8 946.95,-187.8 946.95,-187.8"/>
<polygon fill="black" stroke="black" points="946.95,-191.3 956.95,-187.8 946.95,-184.3 946.95,-191.3"/>
</g>
<!-- EditCandidateModalComponent -->
<g id="node9" class="node">
<title>EditCandidateModalComponent</title>
<polygon fill="#ffffb3" stroke="black" points="373.97,-149.8 176.03,-149.8 176.03,-113.8 373.97,-113.8 373.97,-149.8"/>
<text text-anchor="middle" x="275" y="-127.6" font-family="Times,serif" font-size="14.00">EditCandidateModalComponent</text>
</g>
<!-- EditCandidateModalComponent&#45;&gt;CandidateDetailModule -->
<g id="edge10" class="edge">
<title>EditCandidateModalComponent&#45;&gt;CandidateDetailModule</title>
<path fill="none" stroke="black" d="M293.62,-150.1C293.62,-168.07 293.62,-192.8 293.62,-192.8 293.62,-192.8 946.79,-192.8 946.79,-192.8"/>
<polygon fill="black" stroke="black" points="946.79,-196.3 956.79,-192.8 946.79,-189.3 946.79,-196.3"/>
</g>
<!-- AddCommentModalComponent  -->
<g id="node13" class="node">
<title>AddCommentModalComponent </title>
<polygon fill="#fb8072" stroke="black" points="1887.21,-279.8 1686.79,-279.8 1686.79,-243.8 1887.21,-243.8 1887.21,-279.8"/>
<text text-anchor="middle" x="1787" y="-257.6" font-family="Times,serif" font-size="14.00">AddCommentModalComponent </text>
</g>
<!-- CandidateDetailModule&#45;&gt;AddCommentModalComponent  -->
<g id="edge12" class="edge">
<title>CandidateDetailModule&#45;&gt;AddCommentModalComponent </title>
<path fill="none" stroke="black" stroke-dasharray="5,2" d="M1107.31,-201.8C1297.4,-201.8 1781.62,-201.8 1781.62,-201.8 1781.62,-201.8 1781.62,-233.8 1781.62,-233.8"/>
<polygon fill="black" stroke="black" points="1778.13,-233.8 1781.62,-243.8 1785.13,-233.8 1778.13,-233.8"/>
</g>
<!-- CandidateActionComponent  -->
<g id="node14" class="node">
<title>CandidateActionComponent </title>
<polygon fill="#fb8072" stroke="black" points="1668.69,-279.8 1489.31,-279.8 1489.31,-243.8 1668.69,-243.8 1668.69,-279.8"/>
<text text-anchor="middle" x="1579" y="-257.6" font-family="Times,serif" font-size="14.00">CandidateActionComponent </text>
</g>
<!-- CandidateDetailModule&#45;&gt;CandidateActionComponent  -->
<g id="edge13" class="edge">
<title>CandidateDetailModule&#45;&gt;CandidateActionComponent </title>
<path fill="none" stroke="black" stroke-dasharray="5,2" d="M1107.08,-205.8C1249.88,-205.8 1546.47,-205.8 1546.47,-205.8 1546.47,-205.8 1546.47,-233.77 1546.47,-233.77"/>
<polygon fill="black" stroke="black" points="1542.97,-233.77 1546.47,-243.77 1549.97,-233.77 1542.97,-233.77"/>
</g>
<!-- CandidateCommunicationsComponent  -->
<g id="node15" class="node">
<title>CandidateCommunicationsComponent </title>
<polygon fill="#fb8072" stroke="black" points="1471.75,-279.8 1234.25,-279.8 1234.25,-243.8 1471.75,-243.8 1471.75,-279.8"/>
<text text-anchor="middle" x="1353" y="-257.6" font-family="Times,serif" font-size="14.00">CandidateCommunicationsComponent </text>
</g>
<!-- CandidateDetailModule&#45;&gt;CandidateCommunicationsComponent  -->
<g id="edge14" class="edge">
<title>CandidateDetailModule&#45;&gt;CandidateCommunicationsComponent </title>
<path fill="none" stroke="black" stroke-dasharray="5,2" d="M1107.37,-210.8C1190.26,-210.8 1311.87,-210.8 1311.87,-210.8 1311.87,-210.8 1311.87,-233.68 1311.87,-233.68"/>
<polygon fill="black" stroke="black" points="1308.37,-233.68 1311.87,-243.68 1315.37,-233.68 1308.37,-233.68"/>
</g>
<!-- CandidateDetailComponent  -->
<g id="node16" class="node">
<title>CandidateDetailComponent </title>
<polygon fill="#fb8072" stroke="black" points="1215.8,-279.8 1040.2,-279.8 1040.2,-243.8 1215.8,-243.8 1215.8,-279.8"/>
<text text-anchor="middle" x="1128" y="-257.6" font-family="Times,serif" font-size="14.00">CandidateDetailComponent </text>
</g>
<!-- CandidateDetailModule&#45;&gt;CandidateDetailComponent  -->
<g id="edge15" class="edge">
<title>CandidateDetailModule&#45;&gt;CandidateDetailComponent </title>
<path fill="none" stroke="black" stroke-dasharray="5,2" d="M1073.68,-214.91C1073.68,-214.91 1073.68,-233.79 1073.68,-233.79"/>
<polygon fill="black" stroke="black" points="1070.18,-233.79 1073.68,-243.79 1077.18,-233.79 1070.18,-233.79"/>
</g>
<!-- CandidateFormComponent  -->
<g id="node17" class="node">
<title>CandidateFormComponent </title>
<polygon fill="#fb8072" stroke="black" points="1021.93,-279.8 850.07,-279.8 850.07,-243.8 1021.93,-243.8 1021.93,-279.8"/>
<text text-anchor="middle" x="936" y="-257.6" font-family="Times,serif" font-size="14.00">CandidateFormComponent </text>
</g>
<!-- CandidateDetailModule&#45;&gt;CandidateFormComponent  -->
<g id="edge16" class="edge">
<title>CandidateDetailModule&#45;&gt;CandidateFormComponent </title>
<path fill="none" stroke="black" stroke-dasharray="5,2" d="M989.35,-214.91C989.35,-214.91 989.35,-233.79 989.35,-233.79"/>
<polygon fill="black" stroke="black" points="985.85,-233.79 989.35,-243.79 992.85,-233.79 985.85,-233.79"/>
</g>
<!-- CandidateMainInfoComponent  -->
<g id="node18" class="node">
<title>CandidateMainInfoComponent </title>
<polygon fill="#fb8072" stroke="black" points="832.47,-279.8 637.53,-279.8 637.53,-243.8 832.47,-243.8 832.47,-279.8"/>
<text text-anchor="middle" x="735" y="-257.6" font-family="Times,serif" font-size="14.00">CandidateMainInfoComponent </text>
</g>
<!-- CandidateDetailModule&#45;&gt;CandidateMainInfoComponent  -->
<g id="edge17" class="edge">
<title>CandidateDetailModule&#45;&gt;CandidateMainInfoComponent </title>
<path fill="none" stroke="black" stroke-dasharray="5,2" d="M956.79,-210.8C897.98,-210.8 826.11,-210.8 826.11,-210.8 826.11,-210.8 826.11,-233.68 826.11,-233.68"/>
<polygon fill="black" stroke="black" points="822.61,-233.68 826.11,-243.68 829.61,-233.68 822.61,-233.68"/>
</g>
<!-- CandidateUpdatesComponent  -->
<g id="node19" class="node">
<title>CandidateUpdatesComponent </title>
<polygon fill="#fb8072" stroke="black" points="619.97,-279.8 432.03,-279.8 432.03,-243.8 619.97,-243.8 619.97,-279.8"/>
<text text-anchor="middle" x="526" y="-257.6" font-family="Times,serif" font-size="14.00">CandidateUpdatesComponent </text>
</g>
<!-- CandidateDetailModule&#45;&gt;CandidateUpdatesComponent  -->
<g id="edge18" class="edge">
<title>CandidateDetailModule&#45;&gt;CandidateUpdatesComponent </title>
<path fill="none" stroke="black" stroke-dasharray="5,2" d="M956.89,-205.8C822.86,-205.8 556.34,-205.8 556.34,-205.8 556.34,-205.8 556.34,-233.77 556.34,-233.77"/>
<polygon fill="black" stroke="black" points="552.84,-233.77 556.34,-243.77 559.84,-233.77 552.84,-233.77"/>
</g>
<!-- EditCandidateModalComponent  -->
<g id="node20" class="node">
<title>EditCandidateModalComponent </title>
<polygon fill="#fb8072" stroke="black" points="414.97,-279.8 213.03,-279.8 213.03,-243.8 414.97,-243.8 414.97,-279.8"/>
<text text-anchor="middle" x="314" y="-257.6" font-family="Times,serif" font-size="14.00">EditCandidateModalComponent </text>
</g>
<!-- CandidateDetailModule&#45;&gt;EditCandidateModalComponent  -->
<g id="edge19" class="edge">
<title>CandidateDetailModule&#45;&gt;EditCandidateModalComponent </title>
<path fill="none" stroke="black" stroke-dasharray="5,2" d="M956.77,-201.8C789.86,-201.8 403.18,-201.8 403.18,-201.8 403.18,-201.8 403.18,-233.8 403.18,-233.8"/>
<polygon fill="black" stroke="black" points="399.68,-233.8 403.18,-243.8 406.68,-233.8 399.68,-233.8"/>
</g>
<!-- CandidateDetailService -->
<g id="node11" class="node">
<title>CandidateDetailService</title>
<ellipse fill="#fdb462" stroke="black" cx="2004" cy="-66.8" rx="102.98" ry="18"/>
<text text-anchor="middle" x="2004" y="-62.6" font-family="Times,serif" font-size="14.00">CandidateDetailService</text>
</g>
<!-- CandidateDetailService&#45;&gt;CandidateDetailComponent -->
<g id="edge5" class="edge">
<title>CandidateDetailService&#45;&gt;CandidateDetailComponent</title>
<path fill="none" stroke="black" d="M1995,-84.91C1995,-84.91 1995,-103.79 1995,-103.79"/>
<polygon fill="black" stroke="black" points="1991.5,-103.79 1995,-113.79 1998.5,-103.79 1991.5,-103.79"/>
</g>
<!-- AppRoutingModule -->
<g id="node12" class="node">
<title>AppRoutingModule</title>
<polygon fill="#8dd3c7" stroke="black" points="152.28,-149.8 149.28,-153.8 128.28,-153.8 125.28,-149.8 23.72,-149.8 23.72,-113.8 152.28,-113.8 152.28,-149.8"/>
<text text-anchor="middle" x="88" y="-127.6" font-family="Times,serif" font-size="14.00">AppRoutingModule</text>
</g>
<!-- AppRoutingModule&#45;&gt;CandidateDetailModule -->
<g id="edge11" class="edge">
<title>AppRoutingModule&#45;&gt;CandidateDetailModule</title>
<path fill="none" stroke="black" d="M88,-149.91C88,-169.14 88,-196.8 88,-196.8 88,-196.8 946.74,-196.8 946.74,-196.8"/>
<polygon fill="black" stroke="black" points="946.74,-200.3 956.74,-196.8 946.74,-193.3 946.74,-200.3"/>
</g>
</g>
</svg>
