<?xml version="1.0" encoding="UTF-8" standalone="no"?>
<!DOCTYPE svg PUBLIC "-//W3C//DTD SVG 1.1//EN"
 "http://www.w3.org/Graphics/SVG/1.1/DTD/svg11.dtd">
<!-- Generated by graphviz version 5.0.0 (20220707.1540)
 -->
<!-- Title: dependencies Pages: 1 -->
<svg width="250pt" height="247pt"
 viewBox="0.00 0.00 250.00 246.80" xmlns="http://www.w3.org/2000/svg" xmlns:xlink="http://www.w3.org/1999/xlink">
<g id="graph0" class="graph" transform="scale(1 1) rotate(0) translate(4 242.8)">
<title>dependencies</title>
<polygon fill="white" stroke="transparent" points="-4,4 -4,-242.8 246,-242.8 246,4 -4,4"/>
<text text-anchor="middle" x="121" y="-8.2" font-family="sans-serif" font-size="14.00">dependencies</text>
<g id="clust1" class="cluster">
<title>cluster_AppPipesModule</title>
<polygon fill="none" stroke="black" stroke-dasharray="1,5" points="8,-32.8 8,-230.8 234,-230.8 234,-32.8 8,-32.8"/>
</g>
<g id="clust6" class="cluster">
<title>cluster_AppPipesModule_exports</title>
<polygon fill="none" stroke="black" points="16,-170.8 16,-222.8 226,-222.8 226,-170.8 16,-170.8"/>
</g>
<g id="clust2" class="cluster">
<title>cluster_AppPipesModule_declarations</title>
<polygon fill="none" stroke="black" points="19,-40.8 19,-92.8 222,-92.8 222,-40.8 19,-40.8"/>
</g>
<!-- FullnamePipe -->
<g id="node1" class="node">
<title>FullnamePipe</title>
<polygon fill="#ffffb3" stroke="black" points="213.77,-84.8 120.23,-84.8 120.23,-48.8 213.77,-48.8 213.77,-84.8"/>
<text text-anchor="middle" x="167" y="-62.6" font-family="Times,serif" font-size="14.00">FullnamePipe</text>
</g>
<!-- AppPipesModule -->
<g id="node3" class="node">
<title>AppPipesModule</title>
<polygon fill="#8dd3c7" stroke="black" points="175,-149.8 172,-153.8 151,-153.8 148,-149.8 61,-149.8 61,-113.8 175,-113.8 175,-149.8"/>
<text text-anchor="middle" x="118" y="-127.6" font-family="Times,serif" font-size="14.00">AppPipesModule</text>
</g>
<!-- FullnamePipe&#45;&gt;AppPipesModule -->
<g id="edge1" class="edge">
<title>FullnamePipe&#45;&gt;AppPipesModule</title>
<path fill="none" stroke="black" d="M147.56,-84.91C147.56,-84.91 147.56,-103.79 147.56,-103.79"/>
<polygon fill="black" stroke="black" points="144.06,-103.79 147.56,-113.79 151.06,-103.79 144.06,-103.79"/>
</g>
<!-- StatusPipe -->
<g id="node2" class="node">
<title>StatusPipe</title>
<polygon fill="#ffffb3" stroke="black" points="102.62,-84.8 27.38,-84.8 27.38,-48.8 102.62,-48.8 102.62,-84.8"/>
<text text-anchor="middle" x="65" y="-62.6" font-family="Times,serif" font-size="14.00">StatusPipe</text>
</g>
<!-- StatusPipe&#45;&gt;AppPipesModule -->
<g id="edge2" class="edge">
<title>StatusPipe&#45;&gt;AppPipesModule</title>
<path fill="none" stroke="black" d="M81.78,-84.91C81.78,-84.91 81.78,-103.79 81.78,-103.79"/>
<polygon fill="black" stroke="black" points="78.28,-103.79 81.78,-113.79 85.28,-103.79 78.28,-103.79"/>
</g>
<!-- FullnamePipe  -->
<g id="node4" class="node">
<title>FullnamePipe </title>
<polygon fill="#fb8072" stroke="black" points="217.77,-214.8 120.23,-214.8 120.23,-178.8 217.77,-178.8 217.77,-214.8"/>
<text text-anchor="middle" x="169" y="-192.6" font-family="Times,serif" font-size="14.00">FullnamePipe </text>
</g>
<!-- AppPipesModule&#45;&gt;FullnamePipe  -->
<g id="edge3" class="edge">
<title>AppPipesModule&#45;&gt;FullnamePipe </title>
<path fill="none" stroke="black" stroke-dasharray="5,2" d="M147.68,-149.91C147.68,-149.91 147.68,-168.79 147.68,-168.79"/>
<polygon fill="black" stroke="black" points="144.18,-168.79 147.68,-178.79 151.18,-168.79 144.18,-168.79"/>
</g>
<!-- StatusPipe  -->
<g id="node5" class="node">
<title>StatusPipe </title>
<polygon fill="#fb8072" stroke="black" points="102.12,-214.8 23.88,-214.8 23.88,-178.8 102.12,-178.8 102.12,-214.8"/>
<text text-anchor="middle" x="63" y="-192.6" font-family="Times,serif" font-size="14.00">StatusPipe </text>
</g>
<!-- AppPipesModule&#45;&gt;StatusPipe  -->
<g id="edge4" class="edge">
<title>AppPipesModule&#45;&gt;StatusPipe </title>
<path fill="none" stroke="black" stroke-dasharray="5,2" d="M81.65,-149.91C81.65,-149.91 81.65,-168.79 81.65,-168.79"/>
<polygon fill="black" stroke="black" points="78.15,-168.79 81.65,-178.79 85.15,-168.79 78.15,-168.79"/>
</g>
</g>
</svg>
