<?xml version="1.0" encoding="UTF-8" standalone="no"?>
<!DOCTYPE svg PUBLIC "-//W3C//DTD SVG 1.1//EN"
 "http://www.w3.org/Graphics/SVG/1.1/DTD/svg11.dtd">
<!-- Generated by graphviz version 5.0.0 (20220707.1540)
 -->
<!-- Title: dependencies Pages: 1 -->
<svg width="966pt" height="247pt"
 viewBox="0.00 0.00 966.00 246.80" xmlns="http://www.w3.org/2000/svg" xmlns:xlink="http://www.w3.org/1999/xlink">
<g id="graph0" class="graph" transform="scale(1 1) rotate(0) translate(4 242.8)">
<title>dependencies</title>
<polygon fill="white" stroke="transparent" points="-4,4 -4,-242.8 962,-242.8 962,4 -4,4"/>
<text text-anchor="middle" x="479" y="-8.2" font-family="sans-serif" font-size="14.00">dependencies</text>
<g id="clust1" class="cluster">
<title>cluster_AppModule</title>
<polygon fill="none" stroke="black" stroke-dasharray="1,5" points="8,-32.8 8,-230.8 950,-230.8 950,-32.8 8,-32.8"/>
</g>
<g id="clust2" class="cluster">
<title>cluster_AppModule_declarations</title>
<polygon fill="none" stroke="black" points="820,-40.8 820,-92.8 942,-92.8 942,-40.8 820,-40.8"/>
</g>
<g id="clust4" class="cluster">
<title>cluster_AppModule_imports</title>
<polygon fill="none" stroke="black" points="16,-40.8 16,-92.8 812,-92.8 812,-40.8 16,-40.8"/>
</g>
<g id="clust6" class="cluster">
<title>cluster_AppModule_bootstrap</title>
<polygon fill="none" stroke="black" points="369,-170.8 369,-222.8 493,-222.8 493,-170.8 369,-170.8"/>
</g>
<!-- AppComponent -->
<g id="node1" class="node">
<title>AppComponent</title>
<polygon fill="#ffffb3" stroke="black" points="933.94,-84.8 828.06,-84.8 828.06,-48.8 933.94,-48.8 933.94,-84.8"/>
<text text-anchor="middle" x="881" y="-62.6" font-family="Times,serif" font-size="14.00">AppComponent</text>
</g>
<!-- AppModule -->
<g id="node2" class="node">
<title>AppModule</title>
<polygon fill="#8dd3c7" stroke="black" points="472.66,-149.8 469.66,-153.8 448.66,-153.8 445.66,-149.8 389.34,-149.8 389.34,-113.8 472.66,-113.8 472.66,-149.8"/>
<text text-anchor="middle" x="431" y="-127.6" font-family="Times,serif" font-size="14.00">AppModule</text>
</g>
<!-- AppComponent&#45;&gt;AppModule -->
<g id="edge1" class="edge">
<title>AppComponent&#45;&gt;AppModule</title>
<path fill="none" stroke="black" d="M881,-85.09C881,-107.01 881,-140.8 881,-140.8 881,-140.8 482.93,-140.8 482.93,-140.8"/>
<polygon fill="black" stroke="black" points="482.93,-137.3 472.93,-140.8 482.93,-144.3 482.93,-137.3"/>
</g>
<!-- AppComponent  -->
<g id="node9" class="node">
<title>AppComponent </title>
<polygon fill="#80b1d3" stroke="black" points="485.44,-214.8 376.56,-214.8 376.56,-178.8 485.44,-178.8 485.44,-214.8"/>
<text text-anchor="middle" x="431" y="-192.6" font-family="Times,serif" font-size="14.00">AppComponent </text>
</g>
<!-- AppModule&#45;&gt;AppComponent  -->
<g id="edge8" class="edge">
<title>AppModule&#45;&gt;AppComponent </title>
<path fill="none" stroke="black" stroke-dasharray="1,5" d="M431,-149.91C431,-149.91 431,-168.79 431,-168.79"/>
<polygon fill="black" stroke="black" points="427.5,-168.79 431,-178.79 434.5,-168.79 427.5,-168.79"/>
</g>
<!-- AppRoutingModule -->
<g id="node3" class="node">
<title>AppRoutingModule</title>
<polygon fill="#8dd3c7" stroke="black" points="804.28,-84.8 801.28,-88.8 780.28,-88.8 777.28,-84.8 675.72,-84.8 675.72,-48.8 804.28,-48.8 804.28,-84.8"/>
<text text-anchor="middle" x="740" y="-62.6" font-family="Times,serif" font-size="14.00">AppRoutingModule</text>
</g>
<!-- AppRoutingModule&#45;&gt;AppModule -->
<g id="edge2" class="edge">
<title>AppRoutingModule&#45;&gt;AppModule</title>
<path fill="none" stroke="black" d="M740,-84.91C740,-104.14 740,-131.8 740,-131.8 740,-131.8 482.67,-131.8 482.67,-131.8"/>
<polygon fill="black" stroke="black" points="482.67,-128.3 472.67,-131.8 482.67,-135.3 482.67,-128.3"/>
</g>
<!-- CandidateDetailModule -->
<g id="node4" class="node">
<title>CandidateDetailModule</title>
<polygon fill="#8dd3c7" stroke="black" points="657.02,-84.8 654.02,-88.8 633.02,-88.8 630.02,-84.8 506.98,-84.8 506.98,-48.8 657.02,-48.8 657.02,-84.8"/>
<text text-anchor="middle" x="582" y="-62.6" font-family="Times,serif" font-size="14.00">CandidateDetailModule</text>
</g>
<!-- CandidateDetailModule&#45;&gt;AppModule -->
<g id="edge3" class="edge">
<title>CandidateDetailModule&#45;&gt;AppModule</title>
<path fill="none" stroke="black" d="M582,-84.83C582,-101.2 582,-122.8 582,-122.8 582,-122.8 483.06,-122.8 483.06,-122.8"/>
<polygon fill="black" stroke="black" points="483.06,-119.3 473.06,-122.8 483.06,-126.3 483.06,-119.3"/>
</g>
<!-- CandidateModule -->
<g id="node5" class="node">
<title>CandidateModule</title>
<polygon fill="#8dd3c7" stroke="black" points="489.31,-84.8 486.31,-88.8 465.31,-88.8 462.31,-84.8 372.69,-84.8 372.69,-48.8 489.31,-48.8 489.31,-84.8"/>
<text text-anchor="middle" x="431" y="-62.6" font-family="Times,serif" font-size="14.00">CandidateModule</text>
</g>
<!-- CandidateModule&#45;&gt;AppModule -->
<g id="edge4" class="edge">
<title>CandidateModule&#45;&gt;AppModule</title>
<path fill="none" stroke="black" d="M431,-84.91C431,-84.91 431,-103.79 431,-103.79"/>
<polygon fill="black" stroke="black" points="427.5,-103.79 431,-113.79 434.5,-103.79 427.5,-103.79"/>
</g>
<!-- MergeModule -->
<g id="node6" class="node">
<title>MergeModule</title>
<polygon fill="#8dd3c7" stroke="black" points="355.09,-84.8 352.09,-88.8 331.09,-88.8 328.09,-84.8 258.91,-84.8 258.91,-48.8 355.09,-48.8 355.09,-84.8"/>
<text text-anchor="middle" x="307" y="-62.6" font-family="Times,serif" font-size="14.00">MergeModule</text>
</g>
<!-- MergeModule&#45;&gt;AppModule -->
<g id="edge5" class="edge">
<title>MergeModule&#45;&gt;AppModule</title>
<path fill="none" stroke="black" d="M307,-84.83C307,-101.2 307,-122.8 307,-122.8 307,-122.8 379.02,-122.8 379.02,-122.8"/>
<polygon fill="black" stroke="black" points="379.02,-126.3 389.02,-122.8 379.02,-119.3 379.02,-126.3"/>
</g>
<!-- SharedModule -->
<g id="node7" class="node">
<title>SharedModule</title>
<polygon fill="#8dd3c7" stroke="black" points="241.43,-84.8 238.43,-88.8 217.43,-88.8 214.43,-84.8 142.57,-84.8 142.57,-48.8 241.43,-48.8 241.43,-84.8"/>
<text text-anchor="middle" x="192" y="-62.6" font-family="Times,serif" font-size="14.00">SharedModule</text>
</g>
<!-- SharedModule&#45;&gt;AppModule -->
<g id="edge6" class="edge">
<title>SharedModule&#45;&gt;AppModule</title>
<path fill="none" stroke="black" d="M192,-84.91C192,-104.14 192,-131.8 192,-131.8 192,-131.8 379.1,-131.8 379.1,-131.8"/>
<polygon fill="black" stroke="black" points="379.1,-135.3 389.1,-131.8 379.1,-128.3 379.1,-135.3"/>
</g>
<!-- SystemModule -->
<g id="node8" class="node">
<title>SystemModule</title>
<polygon fill="#8dd3c7" stroke="black" points="124.28,-84.8 121.28,-88.8 100.28,-88.8 97.28,-84.8 23.72,-84.8 23.72,-48.8 124.28,-48.8 124.28,-84.8"/>
<text text-anchor="middle" x="74" y="-62.6" font-family="Times,serif" font-size="14.00">SystemModule</text>
</g>
<!-- SystemModule&#45;&gt;AppModule -->
<g id="edge7" class="edge">
<title>SystemModule&#45;&gt;AppModule</title>
<path fill="none" stroke="black" d="M74,-85.09C74,-107.01 74,-140.8 74,-140.8 74,-140.8 379,-140.8 379,-140.8"/>
<polygon fill="black" stroke="black" points="379,-144.3 389,-140.8 379,-137.3 379,-144.3"/>
</g>
</g>
</svg>
