<?xml version="1.0" encoding="UTF-8" standalone="no"?>
<!DOCTYPE svg PUBLIC "-//W3C//DTD SVG 1.1//EN"
 "http://www.w3.org/Graphics/SVG/1.1/DTD/svg11.dtd">
<!-- Generated by graphviz version 5.0.0 (20220707.1540)
 -->
<!-- Title: dependencies Pages: 1 -->
<svg width="4004pt" height="481pt"
 viewBox="0.00 0.00 4004.00 480.80" xmlns="http://www.w3.org/2000/svg" xmlns:xlink="http://www.w3.org/1999/xlink">
<g id="graph0" class="graph" transform="scale(1 1) rotate(0) translate(4 476.8)">
<title>dependencies</title>
<polygon fill="white" stroke="transparent" points="-4,4 -4,-476.8 4000,-476.8 4000,4 -4,4"/>
<text text-anchor="middle" x="1998" y="-8.2" font-family="sans-serif" font-size="14.00">dependencies</text>
<g id="clust1" class="cluster">
<title>cluster_AppModule</title>
<polygon fill="none" stroke="black" stroke-dasharray="1,5" points="916,-100.8 916,-464.8 1534,-464.8 1534,-100.8 916,-100.8"/>
</g>
<g id="clust2" class="cluster">
<title>cluster_AppModule_declarations</title>
<polygon fill="none" stroke="black" points="956,-260.8 956,-312.8 1078,-312.8 1078,-260.8 956,-260.8"/>
</g>
<g id="clust4" class="cluster">
<title>cluster_AppModule_imports</title>
<polygon fill="none" stroke="black" points="1086,-108.8 1086,-312.8 1526,-312.8 1526,-108.8 1086,-108.8"/>
</g>
<g id="clust6" class="cluster">
<title>cluster_AppModule_bootstrap</title>
<polygon fill="none" stroke="black" points="1027,-404.8 1027,-456.8 1151,-456.8 1151,-404.8 1027,-404.8"/>
</g>
<g id="clust8" class="cluster">
<title>cluster_AppPipesModule</title>
<polygon fill="none" stroke="black" stroke-dasharray="1,5" points="3762,-32.8 3762,-244.8 3988,-244.8 3988,-32.8 3762,-32.8"/>
</g>
<g id="clust9" class="cluster">
<title>cluster_AppPipesModule_declarations</title>
<polygon fill="none" stroke="black" points="3773,-40.8 3773,-92.8 3976,-92.8 3976,-40.8 3773,-40.8"/>
</g>
<g id="clust13" class="cluster">
<title>cluster_AppPipesModule_exports</title>
<polygon fill="none" stroke="black" points="3770,-184.8 3770,-236.8 3980,-236.8 3980,-184.8 3770,-184.8"/>
</g>
<g id="clust22" class="cluster">
<title>cluster_CandidateDetailModule</title>
<polygon fill="none" stroke="black" stroke-dasharray="1,5" points="1542,-32.8 1542,-168.8 3478,-168.8 3478,-32.8 1542,-32.8"/>
</g>
<g id="clust23" class="cluster">
<title>cluster_CandidateDetailModule_declarations</title>
<polygon fill="none" stroke="black" points="1550,-108.8 1550,-160.8 3457,-160.8 3457,-108.8 1550,-108.8"/>
</g>
<g id="clust27" class="cluster">
<title>cluster_CandidateDetailModule_CandidateDetailComponent_providers</title>
<polygon fill="none" stroke="black" points="1550,-40.8 1550,-92.8 1772,-92.8 1772,-40.8 1550,-40.8"/>
</g>
<g id="clust34" class="cluster">
<title>cluster_CandidateDetailModule_exports</title>
<polygon fill="none" stroke="black" points="1780,-40.8 1780,-92.8 3470,-92.8 3470,-40.8 1780,-40.8"/>
</g>
<g id="clust37" class="cluster">
<title>cluster_CandidateModule</title>
<polygon fill="none" stroke="black" stroke-dasharray="1,5" points="1542,-328.8 1542,-396.8 2586,-396.8 2586,-328.8 1542,-328.8"/>
</g>
<g id="clust38" class="cluster">
<title>cluster_CandidateModule_declarations</title>
<polygon fill="none" stroke="black" points="2073,-336.8 2073,-388.8 2578,-388.8 2578,-336.8 2073,-336.8"/>
</g>
<g id="clust43" class="cluster">
<title>cluster_CandidateModule_exports</title>
<polygon fill="none" stroke="black" points="1550,-336.8 1550,-388.8 2065,-388.8 2065,-336.8 1550,-336.8"/>
</g>
<g id="clust46" class="cluster">
<title>cluster_MergeModule</title>
<polygon fill="none" stroke="black" stroke-dasharray="1,5" points="8,-176.8 8,-244.8 908,-244.8 908,-176.8 8,-176.8"/>
</g>
<g id="clust47" class="cluster">
<title>cluster_MergeModule_declarations</title>
<polygon fill="none" stroke="black" points="188,-184.8 188,-236.8 900,-236.8 900,-184.8 188,-184.8"/>
</g>
<g id="clust53" class="cluster">
<title>cluster_MergeModule_exports</title>
<polygon fill="none" stroke="black" points="16,-184.8 16,-236.8 180,-236.8 180,-184.8 16,-184.8"/>
</g>
<g id="clust56" class="cluster">
<title>cluster_SharedModule</title>
<polygon fill="none" stroke="black" stroke-dasharray="1,5" points="1542,-252.8 1542,-320.8 2702,-320.8 2702,-252.8 1542,-252.8"/>
</g>
<g id="clust57" class="cluster">
<title>cluster_SharedModule_declarations</title>
<polygon fill="none" stroke="black" points="2131,-260.8 2131,-312.8 2694,-312.8 2694,-260.8 2131,-260.8"/>
</g>
<g id="clust62" class="cluster">
<title>cluster_SharedModule_exports</title>
<polygon fill="none" stroke="black" points="1550,-260.8 1550,-312.8 2123,-312.8 2123,-260.8 1550,-260.8"/>
</g>
<g id="clust65" class="cluster">
<title>cluster_SystemModule</title>
<polygon fill="none" stroke="black" stroke-dasharray="1,5" points="2710,-252.8 2710,-320.8 3014,-320.8 3014,-252.8 2710,-252.8"/>
</g>
<g id="clust66" class="cluster">
<title>cluster_SystemModule_declarations</title>
<polygon fill="none" stroke="black" points="2868,-260.8 2868,-312.8 3006,-312.8 3006,-260.8 2868,-260.8"/>
</g>
<g id="clust69" class="cluster">
<title>cluster_SystemModule_exports</title>
<polygon fill="none" stroke="black" points="2718,-260.8 2718,-312.8 2860,-312.8 2860,-260.8 2718,-260.8"/>
</g>
<!-- AppComponent -->
<g id="node1" class="node">
<title>AppComponent</title>
<polygon fill="#ffffb3" stroke="black" points="1069.94,-304.8 964.06,-304.8 964.06,-268.8 1069.94,-268.8 1069.94,-304.8"/>
<text text-anchor="middle" x="1017" y="-282.6" font-family="Times,serif" font-size="14.00">AppComponent</text>
</g>
<!-- AppModule -->
<g id="node2" class="node">
<title>AppModule</title>
<polygon fill="#8dd3c7" stroke="black" points="1130.66,-380.8 1127.66,-384.8 1106.66,-384.8 1103.66,-380.8 1047.34,-380.8 1047.34,-344.8 1130.66,-344.8 1130.66,-380.8"/>
<text text-anchor="middle" x="1089" y="-358.6" font-family="Times,serif" font-size="14.00">AppModule</text>
</g>
<!-- AppComponent&#45;&gt;AppModule -->
<g id="edge1" class="edge">
<title>AppComponent&#45;&gt;AppModule</title>
<path fill="none" stroke="black" d="M1058.44,-304.81C1058.44,-304.81 1058.44,-334.65 1058.44,-334.65"/>
<polygon fill="black" stroke="black" points="1054.94,-334.65 1058.44,-344.65 1061.94,-334.65 1054.94,-334.65"/>
</g>
<!-- AppComponent  -->
<g id="node9" class="node">
<title>AppComponent </title>
<polygon fill="#80b1d3" stroke="black" points="1143.44,-448.8 1034.56,-448.8 1034.56,-412.8 1143.44,-412.8 1143.44,-448.8"/>
<text text-anchor="middle" x="1089" y="-426.6" font-family="Times,serif" font-size="14.00">AppComponent </text>
</g>
<!-- AppModule&#45;&gt;AppComponent  -->
<g id="edge8" class="edge">
<title>AppModule&#45;&gt;AppComponent </title>
<path fill="none" stroke="black" stroke-dasharray="1,5" d="M1089,-381.02C1089,-381.02 1089,-402.53 1089,-402.53"/>
<polygon fill="black" stroke="black" points="1085.5,-402.53 1089,-412.53 1092.5,-402.53 1085.5,-402.53"/>
</g>
<!-- AppRoutingModule -->
<g id="node3" class="node">
<title>AppRoutingModule</title>
<polygon fill="#8dd3c7" stroke="black" points="1262.28,-152.8 1259.28,-156.8 1238.28,-156.8 1235.28,-152.8 1133.72,-152.8 1133.72,-116.8 1262.28,-116.8 1262.28,-152.8"/>
<text text-anchor="middle" x="1198" y="-130.6" font-family="Times,serif" font-size="14.00">AppRoutingModule</text>
</g>
<!-- AppRoutingModule&#45;&gt;AppModule -->
<g id="edge2" class="edge">
<title>AppRoutingModule&#45;&gt;AppModule</title>
<path fill="none" stroke="black" d="M1133.61,-134.8C1114.7,-134.8 1098.98,-134.8 1098.98,-134.8 1098.98,-134.8 1098.98,-334.53 1098.98,-334.53"/>
<polygon fill="black" stroke="black" points="1095.48,-334.53 1098.98,-344.53 1102.48,-334.53 1095.48,-334.53"/>
</g>
<!-- CandidateDetailModule -->
<g id="node4" class="node">
<title>CandidateDetailModule</title>
<polygon fill="#8dd3c7" stroke="black" points="1518.02,-228.8 1515.02,-232.8 1494.02,-232.8 1491.02,-228.8 1367.98,-228.8 1367.98,-192.8 1518.02,-192.8 1518.02,-228.8"/>
<text text-anchor="middle" x="1443" y="-206.6" font-family="Times,serif" font-size="14.00">CandidateDetailModule</text>
</g>
<!-- AppRoutingModule&#45;&gt;CandidateDetailModule -->
<g id="edge23" class="edge">
<title>AppRoutingModule&#45;&gt;CandidateDetailModule</title>
<path fill="none" stroke="black" d="M1262.5,-128.8C1327.39,-128.8 1417.91,-128.8 1417.91,-128.8 1417.91,-128.8 1417.91,-182.6 1417.91,-182.6"/>
<polygon fill="black" stroke="black" points="1414.41,-182.6 1417.91,-192.6 1421.41,-182.6 1414.41,-182.6"/>
</g>
<!-- CandidateModule -->
<g id="node5" class="node">
<title>CandidateModule</title>
<polygon fill="#8dd3c7" stroke="black" points="1518.31,-304.8 1515.31,-308.8 1494.31,-308.8 1491.31,-304.8 1401.69,-304.8 1401.69,-268.8 1518.31,-268.8 1518.31,-304.8"/>
<text text-anchor="middle" x="1460" y="-282.6" font-family="Times,serif" font-size="14.00">CandidateModule</text>
</g>
<!-- AppRoutingModule&#45;&gt;CandidateModule -->
<g id="edge35" class="edge">
<title>AppRoutingModule&#45;&gt;CandidateModule</title>
<path fill="none" stroke="black" d="M1242.54,-152.83C1242.54,-193.1 1242.54,-286.8 1242.54,-286.8 1242.54,-286.8 1391.72,-286.8 1391.72,-286.8"/>
<polygon fill="black" stroke="black" points="1391.72,-290.3 1401.72,-286.8 1391.72,-283.3 1391.72,-290.3"/>
</g>
<!-- MergeModule -->
<g id="node6" class="node">
<title>MergeModule</title>
<polygon fill="#8dd3c7" stroke="black" points="1224.09,-304.8 1221.09,-308.8 1200.09,-308.8 1197.09,-304.8 1127.91,-304.8 1127.91,-268.8 1224.09,-268.8 1224.09,-304.8"/>
<text text-anchor="middle" x="1176" y="-282.6" font-family="Times,serif" font-size="14.00">MergeModule</text>
</g>
<!-- AppRoutingModule&#45;&gt;MergeModule -->
<g id="edge45" class="edge">
<title>AppRoutingModule&#45;&gt;MergeModule</title>
<path fill="none" stroke="black" d="M1217.61,-152.83C1217.61,-152.83 1217.61,-258.79 1217.61,-258.79"/>
<polygon fill="black" stroke="black" points="1214.11,-258.79 1217.61,-268.79 1221.11,-258.79 1214.11,-258.79"/>
</g>
<!-- SharedModule -->
<g id="node7" class="node">
<title>SharedModule</title>
<polygon fill="#8dd3c7" stroke="black" points="1350.43,-228.8 1347.43,-232.8 1326.43,-232.8 1323.43,-228.8 1251.57,-228.8 1251.57,-192.8 1350.43,-192.8 1350.43,-228.8"/>
<text text-anchor="middle" x="1301" y="-206.6" font-family="Times,serif" font-size="14.00">SharedModule</text>
</g>
<!-- AppRoutingModule&#45;&gt;SharedModule -->
<g id="edge52" class="edge">
<title>AppRoutingModule&#45;&gt;SharedModule</title>
<path fill="none" stroke="black" d="M1257.09,-152.81C1257.09,-152.81 1257.09,-182.65 1257.09,-182.65"/>
<polygon fill="black" stroke="black" points="1253.59,-182.65 1257.09,-192.65 1260.59,-182.65 1253.59,-182.65"/>
</g>
<!-- SystemModule -->
<g id="node8" class="node">
<title>SystemModule</title>
<polygon fill="#8dd3c7" stroke="black" points="1214.28,-228.8 1211.28,-232.8 1190.28,-232.8 1187.28,-228.8 1113.72,-228.8 1113.72,-192.8 1214.28,-192.8 1214.28,-228.8"/>
<text text-anchor="middle" x="1164" y="-206.6" font-family="Times,serif" font-size="14.00">SystemModule</text>
</g>
<!-- AppRoutingModule&#45;&gt;SystemModule -->
<g id="edge57" class="edge">
<title>AppRoutingModule&#45;&gt;SystemModule</title>
<path fill="none" stroke="black" d="M1174,-152.81C1174,-152.81 1174,-182.65 1174,-182.65"/>
<polygon fill="black" stroke="black" points="1170.5,-182.65 1174,-192.65 1177.5,-182.65 1170.5,-182.65"/>
</g>
<!-- CandidateDetailModule&#45;&gt;AppModule -->
<g id="edge3" class="edge">
<title>CandidateDetailModule&#45;&gt;AppModule</title>
<path fill="none" stroke="black" d="M1384.79,-228.92C1384.79,-270.43 1384.79,-368.8 1384.79,-368.8 1384.79,-368.8 1140.75,-368.8 1140.75,-368.8"/>
<polygon fill="black" stroke="black" points="1140.75,-365.3 1130.75,-368.8 1140.75,-372.3 1140.75,-365.3"/>
</g>
<!-- AddCommentModalComponent  -->
<g id="node25" class="node">
<title>AddCommentModalComponent </title>
<polygon fill="#fb8072" stroke="black" points="2413.21,-84.8 2212.79,-84.8 2212.79,-48.8 2413.21,-48.8 2413.21,-84.8"/>
<text text-anchor="middle" x="2313" y="-62.6" font-family="Times,serif" font-size="14.00">AddCommentModalComponent </text>
</g>
<!-- CandidateDetailModule&#45;&gt;AddCommentModalComponent  -->
<g id="edge24" class="edge">
<title>CandidateDetailModule&#45;&gt;AddCommentModalComponent </title>
<path fill="none" stroke="black" stroke-dasharray="5,2" d="M1518.38,-205.8C1733.7,-205.8 2336.14,-205.8 2336.14,-205.8 2336.14,-205.8 2336.14,-94.97 2336.14,-94.97"/>
<polygon fill="black" stroke="black" points="2339.64,-94.97 2336.14,-84.97 2332.64,-94.97 2339.64,-94.97"/>
</g>
<!-- CandidateActionComponent  -->
<g id="node26" class="node">
<title>CandidateActionComponent </title>
<polygon fill="#fb8072" stroke="black" points="2610.69,-84.8 2431.31,-84.8 2431.31,-48.8 2610.69,-48.8 2610.69,-84.8"/>
<text text-anchor="middle" x="2521" y="-62.6" font-family="Times,serif" font-size="14.00">CandidateActionComponent </text>
</g>
<!-- CandidateDetailModule&#45;&gt;CandidateActionComponent  -->
<g id="edge25" class="edge">
<title>CandidateDetailModule&#45;&gt;CandidateActionComponent </title>
<path fill="none" stroke="black" stroke-dasharray="5,2" d="M1518.12,-209.8C1772.83,-209.8 2587.89,-209.8 2587.89,-209.8 2587.89,-209.8 2587.89,-94.91 2587.89,-94.91"/>
<polygon fill="black" stroke="black" points="2591.39,-94.91 2587.89,-84.91 2584.39,-94.91 2591.39,-94.91"/>
</g>
<!-- CandidateCommunicationsComponent  -->
<g id="node27" class="node">
<title>CandidateCommunicationsComponent </title>
<polygon fill="#fb8072" stroke="black" points="2865.75,-84.8 2628.25,-84.8 2628.25,-48.8 2865.75,-48.8 2865.75,-84.8"/>
<text text-anchor="middle" x="2747" y="-62.6" font-family="Times,serif" font-size="14.00">CandidateCommunicationsComponent </text>
</g>
<!-- CandidateDetailModule&#45;&gt;CandidateCommunicationsComponent  -->
<g id="edge26" class="edge">
<title>CandidateDetailModule&#45;&gt;CandidateCommunicationsComponent </title>
<path fill="none" stroke="black" stroke-dasharray="5,2" d="M1518.36,-214.8C1801.03,-214.8 2782.24,-214.8 2782.24,-214.8 2782.24,-214.8 2782.24,-94.95 2782.24,-94.95"/>
<polygon fill="black" stroke="black" points="2785.74,-94.95 2782.24,-84.95 2778.74,-94.95 2785.74,-94.95"/>
</g>
<!-- CandidateDetailComponent  -->
<g id="node28" class="node">
<title>CandidateDetailComponent </title>
<polygon fill="#fb8072" stroke="black" points="3059.8,-84.8 2884.2,-84.8 2884.2,-48.8 3059.8,-48.8 3059.8,-84.8"/>
<text text-anchor="middle" x="2972" y="-62.6" font-family="Times,serif" font-size="14.00">CandidateDetailComponent </text>
</g>
<!-- CandidateDetailModule&#45;&gt;CandidateDetailComponent  -->
<g id="edge27" class="edge">
<title>CandidateDetailModule&#45;&gt;CandidateDetailComponent </title>
<path fill="none" stroke="black" stroke-dasharray="5,2" d="M1518.04,-218.8C1828.14,-218.8 2993.44,-218.8 2993.44,-218.8 2993.44,-218.8 2993.44,-94.83 2993.44,-94.83"/>
<polygon fill="black" stroke="black" points="2996.94,-94.83 2993.44,-84.83 2989.94,-94.83 2996.94,-94.83"/>
</g>
<!-- CandidateFormComponent  -->
<g id="node29" class="node">
<title>CandidateFormComponent </title>
<polygon fill="#fb8072" stroke="black" points="3249.93,-84.8 3078.07,-84.8 3078.07,-48.8 3249.93,-48.8 3249.93,-84.8"/>
<text text-anchor="middle" x="3164" y="-62.6" font-family="Times,serif" font-size="14.00">CandidateFormComponent </text>
</g>
<!-- CandidateDetailModule&#45;&gt;CandidateFormComponent  -->
<g id="edge28" class="edge">
<title>CandidateDetailModule&#45;&gt;CandidateFormComponent </title>
<path fill="none" stroke="black" stroke-dasharray="5,2" d="M1518.24,-222.8C1855.76,-222.8 3213.8,-222.8 3213.8,-222.8 3213.8,-222.8 3213.8,-95 3213.8,-95"/>
<polygon fill="black" stroke="black" points="3217.3,-95 3213.8,-85 3210.3,-95 3217.3,-95"/>
</g>
<!-- CandidateMainInfoComponent  -->
<g id="node30" class="node">
<title>CandidateMainInfoComponent </title>
<polygon fill="#fb8072" stroke="black" points="3462.47,-84.8 3267.53,-84.8 3267.53,-48.8 3462.47,-48.8 3462.47,-84.8"/>
<text text-anchor="middle" x="3365" y="-62.6" font-family="Times,serif" font-size="14.00">CandidateMainInfoComponent </text>
</g>
<!-- CandidateDetailModule&#45;&gt;CandidateMainInfoComponent  -->
<g id="edge29" class="edge">
<title>CandidateDetailModule&#45;&gt;CandidateMainInfoComponent </title>
<path fill="none" stroke="black" stroke-dasharray="5,2" d="M1518.23,-226.8C1883.64,-226.8 3455.81,-226.8 3455.81,-226.8 3455.81,-226.8 3455.81,-94.84 3455.81,-94.84"/>
<polygon fill="black" stroke="black" points="3459.31,-94.84 3455.81,-84.84 3452.31,-94.84 3459.31,-94.84"/>
</g>
<!-- CandidateUpdatesComponent  -->
<g id="node31" class="node">
<title>CandidateUpdatesComponent </title>
<polygon fill="#fb8072" stroke="black" points="1975.97,-84.8 1788.03,-84.8 1788.03,-48.8 1975.97,-48.8 1975.97,-84.8"/>
<text text-anchor="middle" x="1882" y="-62.6" font-family="Times,serif" font-size="14.00">CandidateUpdatesComponent </text>
</g>
<!-- CandidateDetailModule&#45;&gt;CandidateUpdatesComponent  -->
<g id="edge30" class="edge">
<title>CandidateDetailModule&#45;&gt;CandidateUpdatesComponent </title>
<path fill="none" stroke="black" stroke-dasharray="5,2" d="M1518.05,-197.8C1662.46,-197.8 1964.87,-197.8 1964.87,-197.8 1964.87,-197.8 1964.87,-95.01 1964.87,-95.01"/>
<polygon fill="black" stroke="black" points="1968.37,-95.01 1964.87,-85.01 1961.37,-95.02 1968.37,-95.01"/>
</g>
<!-- EditCandidateModalComponent  -->
<g id="node32" class="node">
<title>EditCandidateModalComponent </title>
<polygon fill="#fb8072" stroke="black" points="2194.97,-84.8 1993.03,-84.8 1993.03,-48.8 2194.97,-48.8 2194.97,-84.8"/>
<text text-anchor="middle" x="2094" y="-62.6" font-family="Times,serif" font-size="14.00">EditCandidateModalComponent </text>
</g>
<!-- CandidateDetailModule&#45;&gt;EditCandidateModalComponent  -->
<g id="edge31" class="edge">
<title>CandidateDetailModule&#45;&gt;EditCandidateModalComponent </title>
<path fill="none" stroke="black" stroke-dasharray="5,2" d="M1518.29,-201.8C1700.39,-201.8 2149.7,-201.8 2149.7,-201.8 2149.7,-201.8 2149.7,-95.01 2149.7,-95.01"/>
<polygon fill="black" stroke="black" points="2153.2,-95.01 2149.7,-85.01 2146.2,-95.01 2153.2,-95.01"/>
</g>
<!-- CandidateModule&#45;&gt;AppModule -->
<g id="edge4" class="edge">
<title>CandidateModule&#45;&gt;AppModule</title>
<path fill="none" stroke="black" d="M1489.08,-305.03C1489.08,-330.81 1489.08,-374.8 1489.08,-374.8 1489.08,-374.8 1140.68,-374.8 1140.68,-374.8"/>
<polygon fill="black" stroke="black" points="1140.68,-371.3 1130.68,-374.8 1140.68,-378.3 1140.68,-371.3"/>
</g>
<!-- ActionsBarComponent  -->
<g id="node36" class="node">
<title>ActionsBarComponent </title>
<polygon fill="#fb8072" stroke="black" points="2057.1,-380.8 1908.9,-380.8 1908.9,-344.8 2057.1,-344.8 2057.1,-380.8"/>
<text text-anchor="middle" x="1983" y="-358.6" font-family="Times,serif" font-size="14.00">ActionsBarComponent </text>
</g>
<!-- CandidateModule&#45;&gt;ActionsBarComponent  -->
<g id="edge38" class="edge">
<title>CandidateModule&#45;&gt;ActionsBarComponent </title>
<path fill="none" stroke="black" stroke-dasharray="5,2" d="M1474.54,-304.84C1474.54,-317.36 1474.54,-331.8 1474.54,-331.8 1474.54,-331.8 1923.99,-331.8 1923.99,-331.8 1923.99,-331.8 1923.99,-334.77 1923.99,-334.77"/>
<polygon fill="black" stroke="black" points="1920.49,-334.77 1923.99,-344.77 1927.49,-334.77 1920.49,-334.77"/>
</g>
<!-- CandidateItemComponent  -->
<g id="node37" class="node">
<title>CandidateItemComponent </title>
<polygon fill="#fb8072" stroke="black" points="1890.75,-380.8 1723.25,-380.8 1723.25,-344.8 1890.75,-344.8 1890.75,-380.8"/>
<text text-anchor="middle" x="1807" y="-358.6" font-family="Times,serif" font-size="14.00">CandidateItemComponent </text>
</g>
<!-- CandidateModule&#45;&gt;CandidateItemComponent  -->
<g id="edge39" class="edge">
<title>CandidateModule&#45;&gt;CandidateItemComponent </title>
<path fill="none" stroke="black" stroke-dasharray="5,2" d="M1460,-304.99C1460,-319.98 1460,-338.8 1460,-338.8 1460,-338.8 1729.04,-338.8 1729.04,-338.8 1729.04,-338.8 1729.04,-339.38 1729.04,-339.38"/>
<polygon fill="black" stroke="black" points="1725.54,-334.61 1729.04,-344.61 1732.54,-334.61 1725.54,-334.61"/>
</g>
<!-- CandidatesComponent  -->
<g id="node38" class="node">
<title>CandidatesComponent </title>
<polygon fill="#fb8072" stroke="black" points="1705.54,-380.8 1558.46,-380.8 1558.46,-344.8 1705.54,-344.8 1705.54,-380.8"/>
<text text-anchor="middle" x="1632" y="-358.6" font-family="Times,serif" font-size="14.00">CandidatesComponent </text>
</g>
<!-- CandidateModule&#45;&gt;CandidatesComponent  -->
<g id="edge40" class="edge">
<title>CandidateModule&#45;&gt;CandidatesComponent </title>
<path fill="none" stroke="black" stroke-dasharray="5,2" d="M1503.62,-304.97C1503.62,-323.89 1503.62,-350.8 1503.62,-350.8 1503.62,-350.8 1548.44,-350.8 1548.44,-350.8"/>
<polygon fill="black" stroke="black" points="1548.44,-354.3 1558.44,-350.8 1548.43,-347.3 1548.44,-354.3"/>
</g>
<!-- MergeModule&#45;&gt;AppModule -->
<g id="edge5" class="edge">
<title>MergeModule&#45;&gt;AppModule</title>
<path fill="none" stroke="black" d="M1137.15,-304.83C1137.15,-325.57 1137.15,-356.8 1137.15,-356.8 1137.15,-356.8 1136.52,-356.8 1136.52,-356.8"/>
<polygon fill="black" stroke="black" points="1140.86,-353.3 1130.86,-356.8 1140.86,-360.3 1140.86,-353.3"/>
</g>
<!-- MergePageComponent  -->
<g id="node43" class="node">
<title>MergePageComponent </title>
<polygon fill="#fb8072" stroke="black" points="172.08,-228.8 23.92,-228.8 23.92,-192.8 172.08,-192.8 172.08,-228.8"/>
<text text-anchor="middle" x="98" y="-206.6" font-family="Times,serif" font-size="14.00">MergePageComponent </text>
</g>
<!-- MergeModule&#45;&gt;MergePageComponent  -->
<g id="edge48" class="edge">
<title>MergeModule&#45;&gt;MergePageComponent </title>
<path fill="none" stroke="black" stroke-dasharray="5,2" d="M1138.76,-268.61C1138.76,-265.26 1138.76,-262.8 1138.76,-262.8 1138.76,-262.8 98,-262.8 98,-262.8 98,-262.8 98,-238.99 98,-238.99"/>
<polygon fill="black" stroke="black" points="101.5,-238.99 98,-228.99 94.5,-238.99 101.5,-238.99"/>
</g>
<!-- SharedModule&#45;&gt;AppModule -->
<g id="edge6" class="edge">
<title>SharedModule&#45;&gt;AppModule</title>
<path fill="none" stroke="black" d="M1328.34,-228.83C1328.34,-269.1 1328.34,-362.8 1328.34,-362.8 1328.34,-362.8 1140.69,-362.8 1140.69,-362.8"/>
<polygon fill="black" stroke="black" points="1140.69,-359.3 1130.69,-362.8 1140.69,-366.3 1140.69,-359.3"/>
</g>
<!-- SharedModule&#45;&gt;CandidateModule -->
<g id="edge36" class="edge">
<title>SharedModule&#45;&gt;CandidateModule</title>
<path fill="none" stroke="black" d="M1339.28,-229.11C1339.28,-248.95 1339.28,-277.8 1339.28,-277.8 1339.28,-277.8 1391.76,-277.8 1391.76,-277.8"/>
<polygon fill="black" stroke="black" points="1391.76,-281.3 1401.76,-277.8 1391.76,-274.3 1391.76,-281.3"/>
</g>
<!-- SharedModule&#45;&gt;MergeModule -->
<g id="edge46" class="edge">
<title>SharedModule&#45;&gt;MergeModule</title>
<path fill="none" stroke="black" d="M1251.59,-216.8C1235.1,-216.8 1220.83,-216.8 1220.83,-216.8 1220.83,-216.8 1220.83,-258.77 1220.83,-258.77"/>
<polygon fill="black" stroke="black" points="1217.33,-258.77 1220.83,-268.77 1224.33,-258.77 1217.33,-258.77"/>
</g>
<!-- ErrorDisplayComponent  -->
<g id="node47" class="node">
<title>ErrorDisplayComponent </title>
<polygon fill="#fb8072" stroke="black" points="2114.92,-304.8 1957.08,-304.8 1957.08,-268.8 2114.92,-268.8 2114.92,-304.8"/>
<text text-anchor="middle" x="2036" y="-282.6" font-family="Times,serif" font-size="14.00">ErrorDisplayComponent </text>
</g>
<!-- SharedModule&#45;&gt;ErrorDisplayComponent  -->
<g id="edge53" class="edge">
<title>SharedModule&#45;&gt;ErrorDisplayComponent </title>
<path fill="none" stroke="black" stroke-dasharray="5,2" d="M1317.4,-228.87C1317.4,-238.26 1317.4,-247.8 1317.4,-247.8 1317.4,-247.8 1960.96,-247.8 1960.96,-247.8 1960.96,-247.8 1960.96,-258.67 1960.96,-258.67"/>
<polygon fill="black" stroke="black" points="1957.46,-258.67 1960.96,-268.67 1964.46,-258.67 1957.46,-258.67"/>
</g>
<!-- NewCandidateModalComponent  -->
<g id="node48" class="node">
<title>NewCandidateModalComponent </title>
<polygon fill="#fb8072" stroke="black" points="1939.08,-304.8 1734.92,-304.8 1734.92,-268.8 1939.08,-268.8 1939.08,-304.8"/>
<text text-anchor="middle" x="1837" y="-282.6" font-family="Times,serif" font-size="14.00">NewCandidateModalComponent </text>
</g>
<!-- SharedModule&#45;&gt;NewCandidateModalComponent  -->
<g id="edge54" class="edge">
<title>SharedModule&#45;&gt;NewCandidateModalComponent </title>
<path fill="none" stroke="black" stroke-dasharray="5,2" d="M1306.47,-228.93C1306.47,-239.51 1306.47,-250.8 1306.47,-250.8 1306.47,-250.8 1738.35,-250.8 1738.35,-250.8 1738.35,-250.8 1738.35,-258.38 1738.35,-258.38"/>
<polygon fill="black" stroke="black" points="1734.85,-258.38 1738.35,-268.38 1741.85,-258.38 1734.85,-258.38"/>
</g>
<!-- SignInModalComponent  -->
<g id="node49" class="node">
<title>SignInModalComponent </title>
<polygon fill="#fb8072" stroke="black" points="1716.22,-304.8 1557.78,-304.8 1557.78,-268.8 1716.22,-268.8 1716.22,-304.8"/>
<text text-anchor="middle" x="1637" y="-282.6" font-family="Times,serif" font-size="14.00">SignInModalComponent </text>
</g>
<!-- SharedModule&#45;&gt;SignInModalComponent  -->
<g id="edge55" class="edge">
<title>SharedModule&#45;&gt;SignInModalComponent </title>
<path fill="none" stroke="black" stroke-dasharray="5,2" d="M1295.53,-228.81C1295.53,-244.85 1295.53,-265.8 1295.53,-265.8 1295.53,-265.8 1637.19,-265.8 1637.19,-265.8 1637.19,-265.8 1637.19,-266.09 1637.19,-266.09"/>
<polygon fill="black" stroke="black" points="1633.69,-258.72 1637.19,-268.72 1640.69,-258.72 1633.69,-258.72"/>
</g>
<!-- SystemModule&#45;&gt;AppModule -->
<g id="edge7" class="edge">
<title>SystemModule&#45;&gt;AppModule</title>
<path fill="none" stroke="black" d="M1120.78,-228.83C1120.78,-228.83 1120.78,-334.79 1120.78,-334.79"/>
<polygon fill="black" stroke="black" points="1117.28,-334.79 1120.78,-344.79 1124.28,-334.79 1117.28,-334.79"/>
</g>
<!-- SystemModule&#45;&gt;CandidateModule -->
<g id="edge37" class="edge">
<title>SystemModule&#45;&gt;CandidateModule</title>
<path fill="none" stroke="black" d="M1214.36,-204.8C1225.1,-204.8 1233.29,-204.8 1233.29,-204.8 1233.29,-204.8 1233.29,-295.8 1233.29,-295.8 1233.29,-295.8 1391.62,-295.8 1391.62,-295.8"/>
<polygon fill="black" stroke="black" points="1391.62,-299.3 1401.62,-295.8 1391.62,-292.3 1391.62,-299.3"/>
</g>
<!-- SystemModule&#45;&gt;MergeModule -->
<g id="edge47" class="edge">
<title>SystemModule&#45;&gt;MergeModule</title>
<path fill="none" stroke="black" d="M1181.98,-228.81C1181.98,-228.81 1181.98,-258.65 1181.98,-258.65"/>
<polygon fill="black" stroke="black" points="1178.48,-258.65 1181.98,-268.65 1185.48,-258.65 1178.48,-258.65"/>
</g>
<!-- NavbarComponent  -->
<g id="node51" class="node">
<title>NavbarComponent </title>
<polygon fill="#fb8072" stroke="black" points="2852.03,-304.8 2725.97,-304.8 2725.97,-268.8 2852.03,-268.8 2852.03,-304.8"/>
<text text-anchor="middle" x="2789" y="-282.6" font-family="Times,serif" font-size="14.00">NavbarComponent </text>
</g>
<!-- SystemModule&#45;&gt;NavbarComponent  -->
<g id="edge58" class="edge">
<title>SystemModule&#45;&gt;NavbarComponent </title>
<path fill="none" stroke="black" stroke-dasharray="5,2" d="M1203.59,-228.97C1203.59,-232.85 1203.59,-235.8 1203.59,-235.8 1203.59,-235.8 2749.54,-235.8 2749.54,-235.8 2749.54,-235.8 2749.54,-258.68 2749.54,-258.68"/>
<polygon fill="black" stroke="black" points="2746.04,-258.68 2749.54,-268.68 2753.04,-258.68 2746.04,-258.68"/>
</g>
<!-- FullnamePipe -->
<g id="node10" class="node">
<title>FullnamePipe</title>
<polygon fill="#ffffb3" stroke="black" points="3967.77,-84.8 3874.23,-84.8 3874.23,-48.8 3967.77,-48.8 3967.77,-84.8"/>
<text text-anchor="middle" x="3921" y="-62.6" font-family="Times,serif" font-size="14.00">FullnamePipe</text>
</g>
<!-- AppPipesModule -->
<g id="node12" class="node">
<title>AppPipesModule</title>
<polygon fill="#8dd3c7" stroke="black" points="3930,-152.8 3927,-156.8 3906,-156.8 3903,-152.8 3816,-152.8 3816,-116.8 3930,-116.8 3930,-152.8"/>
<text text-anchor="middle" x="3873" y="-130.6" font-family="Times,serif" font-size="14.00">AppPipesModule</text>
</g>
<!-- FullnamePipe&#45;&gt;AppPipesModule -->
<g id="edge9" class="edge">
<title>FullnamePipe&#45;&gt;AppPipesModule</title>
<path fill="none" stroke="black" d="M3902.06,-85.02C3902.06,-85.02 3902.06,-106.53 3902.06,-106.53"/>
<polygon fill="black" stroke="black" points="3898.56,-106.53 3902.06,-116.53 3905.56,-106.53 3898.56,-106.53"/>
</g>
<!-- StatusPipe -->
<g id="node11" class="node">
<title>StatusPipe</title>
<polygon fill="#ffffb3" stroke="black" points="3856.62,-84.8 3781.38,-84.8 3781.38,-48.8 3856.62,-48.8 3856.62,-84.8"/>
<text text-anchor="middle" x="3819" y="-62.6" font-family="Times,serif" font-size="14.00">StatusPipe</text>
</g>
<!-- StatusPipe&#45;&gt;AppPipesModule -->
<g id="edge10" class="edge">
<title>StatusPipe&#45;&gt;AppPipesModule</title>
<path fill="none" stroke="black" d="M3836.28,-85.02C3836.28,-85.02 3836.28,-106.53 3836.28,-106.53"/>
<polygon fill="black" stroke="black" points="3832.78,-106.53 3836.28,-116.53 3839.78,-106.53 3832.78,-106.53"/>
</g>
<!-- FullnamePipe  -->
<g id="node13" class="node">
<title>FullnamePipe </title>
<polygon fill="#fb8072" stroke="black" points="3875.77,-228.8 3778.23,-228.8 3778.23,-192.8 3875.77,-192.8 3875.77,-228.8"/>
<text text-anchor="middle" x="3827" y="-206.6" font-family="Times,serif" font-size="14.00">FullnamePipe </text>
</g>
<!-- AppPipesModule&#45;&gt;FullnamePipe  -->
<g id="edge11" class="edge">
<title>AppPipesModule&#45;&gt;FullnamePipe </title>
<path fill="none" stroke="black" stroke-dasharray="5,2" d="M3845.82,-152.81C3845.82,-152.81 3845.82,-182.65 3845.82,-182.65"/>
<polygon fill="black" stroke="black" points="3842.32,-182.65 3845.82,-192.65 3849.32,-182.65 3842.32,-182.65"/>
</g>
<!-- StatusPipe  -->
<g id="node14" class="node">
<title>StatusPipe </title>
<polygon fill="#fb8072" stroke="black" points="3972.12,-228.8 3893.88,-228.8 3893.88,-192.8 3972.12,-192.8 3972.12,-228.8"/>
<text text-anchor="middle" x="3933" y="-206.6" font-family="Times,serif" font-size="14.00">StatusPipe </text>
</g>
<!-- AppPipesModule&#45;&gt;StatusPipe  -->
<g id="edge12" class="edge">
<title>AppPipesModule&#45;&gt;StatusPipe </title>
<path fill="none" stroke="black" stroke-dasharray="5,2" d="M3911.85,-152.81C3911.85,-152.81 3911.85,-182.65 3911.85,-182.65"/>
<polygon fill="black" stroke="black" points="3908.35,-182.65 3911.85,-192.65 3915.35,-182.65 3908.35,-182.65"/>
</g>
<!-- AddCommentModalComponent -->
<g id="node15" class="node">
<title>AddCommentModalComponent</title>
<polygon fill="#ffffb3" stroke="black" points="2988.71,-152.8 2791.29,-152.8 2791.29,-116.8 2988.71,-116.8 2988.71,-152.8"/>
<text text-anchor="middle" x="2890" y="-130.6" font-family="Times,serif" font-size="14.00">AddCommentModalComponent</text>
</g>
<!-- AddCommentModalComponent&#45;&gt;CandidateDetailModule -->
<g id="edge13" class="edge">
<title>AddCommentModalComponent&#45;&gt;CandidateDetailModule</title>
<path fill="none" stroke="black" d="M2821.7,-153C2821.7,-177.16 2821.7,-216.8 2821.7,-216.8 2821.7,-216.8 1528.1,-216.8 1528.1,-216.8"/>
<polygon fill="black" stroke="black" points="1528.1,-213.3 1518.1,-216.8 1528.1,-220.3 1528.1,-213.3"/>
</g>
<!-- CandidateActionComponent -->
<g id="node16" class="node">
<title>CandidateActionComponent</title>
<polygon fill="#ffffb3" stroke="black" points="2773.19,-152.8 2596.81,-152.8 2596.81,-116.8 2773.19,-116.8 2773.19,-152.8"/>
<text text-anchor="middle" x="2685" y="-130.6" font-family="Times,serif" font-size="14.00">CandidateActionComponent</text>
</g>
<!-- CandidateActionComponent&#45;&gt;CandidateDetailModule -->
<g id="edge14" class="edge">
<title>CandidateActionComponent&#45;&gt;CandidateDetailModule</title>
<path fill="none" stroke="black" d="M2641.56,-152.89C2641.56,-175.93 2641.56,-212.8 2641.56,-212.8 2641.56,-212.8 1528.43,-212.8 1528.43,-212.8"/>
<polygon fill="black" stroke="black" points="1528.43,-209.3 1518.43,-212.8 1528.43,-216.3 1528.43,-209.3"/>
</g>
<!-- CandidateCommunicationsComponent -->
<g id="node17" class="node">
<title>CandidateCommunicationsComponent</title>
<polygon fill="#ffffb3" stroke="black" points="2578.75,-152.8 2345.25,-152.8 2345.25,-116.8 2578.75,-116.8 2578.75,-152.8"/>
<text text-anchor="middle" x="2462" y="-130.6" font-family="Times,serif" font-size="14.00">CandidateCommunicationsComponent</text>
</g>
<!-- CandidateCommunicationsComponent&#45;&gt;CandidateDetailModule -->
<g id="edge15" class="edge">
<title>CandidateCommunicationsComponent&#45;&gt;CandidateDetailModule</title>
<path fill="none" stroke="black" d="M2429.33,-152.84C2429.33,-174.46 2429.33,-207.8 2429.33,-207.8 2429.33,-207.8 1528.35,-207.8 1528.35,-207.8"/>
<polygon fill="black" stroke="black" points="1528.35,-204.3 1518.35,-207.8 1528.35,-211.3 1528.35,-204.3"/>
</g>
<!-- CandidateDetailComponent -->
<g id="node18" class="node">
<title>CandidateDetailComponent</title>
<polygon fill="#ffffb3" stroke="black" points="2327.3,-152.8 2154.7,-152.8 2154.7,-116.8 2327.3,-116.8 2327.3,-152.8"/>
<text text-anchor="middle" x="2241" y="-130.6" font-family="Times,serif" font-size="14.00">CandidateDetailComponent</text>
</g>
<!-- CandidateDetailComponent&#45;&gt;CandidateDetailModule -->
<g id="edge16" class="edge">
<title>CandidateDetailComponent&#45;&gt;CandidateDetailModule</title>
<path fill="none" stroke="black" d="M2224.73,-152.93C2224.73,-173.37 2224.73,-203.8 2224.73,-203.8 2224.73,-203.8 1528.31,-203.8 1528.31,-203.8"/>
<polygon fill="black" stroke="black" points="1528.31,-200.3 1518.31,-203.8 1528.31,-207.3 1528.31,-200.3"/>
</g>
<!-- CandidateFormComponent -->
<g id="node19" class="node">
<title>CandidateFormComponent</title>
<polygon fill="#ffffb3" stroke="black" points="2137.43,-152.8 1968.57,-152.8 1968.57,-116.8 2137.43,-116.8 2137.43,-152.8"/>
<text text-anchor="middle" x="2053" y="-130.6" font-family="Times,serif" font-size="14.00">CandidateFormComponent</text>
</g>
<!-- CandidateFormComponent&#45;&gt;CandidateDetailModule -->
<g id="edge18" class="edge">
<title>CandidateFormComponent&#45;&gt;CandidateDetailModule</title>
<path fill="none" stroke="black" d="M2041.87,-152.91C2041.87,-172.14 2041.87,-199.8 2041.87,-199.8 2041.87,-199.8 1528.24,-199.8 1528.24,-199.8"/>
<polygon fill="black" stroke="black" points="1528.24,-196.3 1518.24,-199.8 1528.24,-203.3 1528.24,-196.3"/>
</g>
<!-- CandidateMainInfoComponent -->
<g id="node20" class="node">
<title>CandidateMainInfoComponent</title>
<polygon fill="#ffffb3" stroke="black" points="1950.47,-152.8 1759.53,-152.8 1759.53,-116.8 1950.47,-116.8 1950.47,-152.8"/>
<text text-anchor="middle" x="1855" y="-130.6" font-family="Times,serif" font-size="14.00">CandidateMainInfoComponent</text>
</g>
<!-- CandidateMainInfoComponent&#45;&gt;CandidateDetailModule -->
<g id="edge19" class="edge">
<title>CandidateMainInfoComponent&#45;&gt;CandidateDetailModule</title>
<path fill="none" stroke="black" d="M1849.4,-153.1C1849.4,-171.07 1849.4,-195.8 1849.4,-195.8 1849.4,-195.8 1528.49,-195.8 1528.49,-195.8"/>
<polygon fill="black" stroke="black" points="1528.49,-192.3 1518.49,-195.8 1528.49,-199.3 1528.49,-192.3"/>
</g>
<!-- CandidateUpdatesComponent -->
<g id="node21" class="node">
<title>CandidateUpdatesComponent</title>
<polygon fill="#ffffb3" stroke="black" points="1741.97,-152.8 1558.03,-152.8 1558.03,-116.8 1741.97,-116.8 1741.97,-152.8"/>
<text text-anchor="middle" x="1650" y="-130.6" font-family="Times,serif" font-size="14.00">CandidateUpdatesComponent</text>
</g>
<!-- CandidateUpdatesComponent&#45;&gt;CandidateDetailModule -->
<g id="edge20" class="edge">
<title>CandidateUpdatesComponent&#45;&gt;CandidateDetailModule</title>
<path fill="none" stroke="black" d="M1557.98,-140.8C1512.86,-140.8 1468.09,-140.8 1468.09,-140.8 1468.09,-140.8 1468.09,-182.77 1468.09,-182.77"/>
<polygon fill="black" stroke="black" points="1464.59,-182.77 1468.09,-192.77 1471.59,-182.77 1464.59,-182.77"/>
</g>
<!-- CommunicationCommentComponent -->
<g id="node22" class="node">
<title>CommunicationCommentComponent</title>
<polygon fill="#ffffb3" stroke="black" points="3449.27,-152.8 3222.73,-152.8 3222.73,-116.8 3449.27,-116.8 3449.27,-152.8"/>
<text text-anchor="middle" x="3336" y="-130.6" font-family="Times,serif" font-size="14.00">CommunicationCommentComponent</text>
</g>
<!-- CommunicationCommentComponent&#45;&gt;CandidateDetailModule -->
<g id="edge21" class="edge">
<title>CommunicationCommentComponent&#45;&gt;CandidateDetailModule</title>
<path fill="none" stroke="black" d="M3336,-153.01C3336,-179.31 3336,-224.8 3336,-224.8 3336,-224.8 1528.08,-224.8 1528.08,-224.8"/>
<polygon fill="black" stroke="black" points="1528.08,-221.3 1518.08,-224.8 1528.08,-228.3 1528.08,-221.3"/>
</g>
<!-- EditCandidateModalComponent -->
<g id="node23" class="node">
<title>EditCandidateModalComponent</title>
<polygon fill="#ffffb3" stroke="black" points="3204.97,-152.8 3007.03,-152.8 3007.03,-116.8 3204.97,-116.8 3204.97,-152.8"/>
<text text-anchor="middle" x="3106" y="-130.6" font-family="Times,serif" font-size="14.00">EditCandidateModalComponent</text>
</g>
<!-- EditCandidateModalComponent&#45;&gt;CandidateDetailModule -->
<g id="edge22" class="edge">
<title>EditCandidateModalComponent&#45;&gt;CandidateDetailModule</title>
<path fill="none" stroke="black" d="M3106,-153.04C3106,-178.28 3106,-220.8 3106,-220.8 3106,-220.8 1528.23,-220.8 1528.23,-220.8"/>
<polygon fill="black" stroke="black" points="1528.23,-217.3 1518.23,-220.8 1528.23,-224.3 1528.23,-217.3"/>
</g>
<!-- CandidateDetailService -->
<g id="node24" class="node">
<title>CandidateDetailService</title>
<ellipse fill="#fdb462" stroke="black" cx="1661" cy="-66.8" rx="102.98" ry="18"/>
<text text-anchor="middle" x="1661" y="-62.6" font-family="Times,serif" font-size="14.00">CandidateDetailService</text>
</g>
<!-- CandidateDetailService&#45;&gt;CandidateDetailComponent -->
<g id="edge17" class="edge">
<title>CandidateDetailService&#45;&gt;CandidateDetailComponent</title>
<path fill="none" stroke="black" d="M1750.75,-75.73C1750.75,-85.81 1750.75,-100.8 1750.75,-100.8 1750.75,-100.8 2174.79,-100.8 2174.79,-100.8 2174.79,-100.8 2174.79,-106.61 2174.79,-106.61"/>
<polygon fill="black" stroke="black" points="2171.29,-106.61 2174.79,-116.61 2178.29,-106.61 2171.29,-106.61"/>
</g>
<!-- ActionsBarComponent -->
<g id="node33" class="node">
<title>ActionsBarComponent</title>
<polygon fill="#ffffb3" stroke="black" points="2569.6,-380.8 2424.4,-380.8 2424.4,-344.8 2569.6,-344.8 2569.6,-380.8"/>
<text text-anchor="middle" x="2497" y="-358.6" font-family="Times,serif" font-size="14.00">ActionsBarComponent</text>
</g>
<!-- ActionsBarComponent&#45;&gt;CandidateModule -->
<g id="edge32" class="edge">
<title>ActionsBarComponent&#45;&gt;CandidateModule</title>
<path fill="none" stroke="black" d="M2468.99,-344.68C2468.99,-330.02 2468.99,-311.8 2468.99,-311.8 2468.99,-311.8 1445.46,-311.8 1445.46,-311.8 1445.46,-311.8 1445.46,-311.12 1445.46,-311.12"/>
<polygon fill="black" stroke="black" points="1448.96,-314.97 1445.46,-304.97 1441.96,-314.97 1448.96,-314.97"/>
</g>
<!-- CandidateItemComponent -->
<g id="node34" class="node">
<title>CandidateItemComponent</title>
<polygon fill="#ffffb3" stroke="black" points="2406.75,-380.8 2243.25,-380.8 2243.25,-344.8 2406.75,-344.8 2406.75,-380.8"/>
<text text-anchor="middle" x="2325" y="-358.6" font-family="Times,serif" font-size="14.00">CandidateItemComponent</text>
</g>
<!-- CandidateItemComponent&#45;&gt;CandidateModule -->
<g id="edge33" class="edge">
<title>CandidateItemComponent&#45;&gt;CandidateModule</title>
<path fill="none" stroke="black" d="M2268.87,-344.65C2268.87,-332.53 2268.87,-318.8 2268.87,-318.8 2268.87,-318.8 1430.92,-318.8 1430.92,-318.8 1430.92,-318.8 1430.92,-315.04 1430.92,-315.04"/>
<polygon fill="black" stroke="black" points="1434.42,-315.04 1430.92,-305.04 1427.42,-315.04 1434.42,-315.04"/>
</g>
<!-- CandidatesComponent -->
<g id="node35" class="node">
<title>CandidatesComponent</title>
<polygon fill="#ffffb3" stroke="black" points="2224.54,-380.8 2081.46,-380.8 2081.46,-344.8 2224.54,-344.8 2224.54,-380.8"/>
<text text-anchor="middle" x="2153" y="-358.6" font-family="Times,serif" font-size="14.00">CandidatesComponent</text>
</g>
<!-- CandidatesComponent&#45;&gt;CandidateModule -->
<g id="edge34" class="edge">
<title>CandidatesComponent&#45;&gt;CandidateModule</title>
<path fill="none" stroke="black" d="M2098.1,-344.69C2098.1,-334.9 2098.1,-324.8 2098.1,-324.8 2098.1,-324.8 1416.38,-324.8 1416.38,-324.8 1416.38,-324.8 1416.38,-314.91 1416.38,-314.91"/>
<polygon fill="black" stroke="black" points="1419.88,-314.91 1416.38,-304.91 1412.88,-314.91 1419.88,-314.91"/>
</g>
<!-- ActionsBarMergeComponent -->
<g id="node39" class="node">
<title>ActionsBarMergeComponent</title>
<polygon fill="#ffffb3" stroke="black" points="569.64,-228.8 388.36,-228.8 388.36,-192.8 569.64,-192.8 569.64,-228.8"/>
<text text-anchor="middle" x="479" y="-206.6" font-family="Times,serif" font-size="14.00">ActionsBarMergeComponent</text>
</g>
<!-- ActionsBarMergeComponent&#45;&gt;MergeModule -->
<g id="edge41" class="edge">
<title>ActionsBarMergeComponent&#45;&gt;MergeModule</title>
<path fill="none" stroke="black" d="M479,-228.98C479,-241.84 479,-256.8 479,-256.8 479,-256.8 1160.37,-256.8 1160.37,-256.8 1160.37,-256.8 1160.37,-258.66 1160.37,-258.66"/>
<polygon fill="black" stroke="black" points="1156.87,-258.66 1160.37,-268.66 1163.87,-258.66 1156.87,-258.66"/>
</g>
<!-- MergeCandidateComponent -->
<g id="node40" class="node">
<title>MergeCandidateComponent</title>
<polygon fill="#ffffb3" stroke="black" points="370.13,-228.8 195.87,-228.8 195.87,-192.8 370.13,-192.8 370.13,-228.8"/>
<text text-anchor="middle" x="283" y="-206.6" font-family="Times,serif" font-size="14.00">MergeCandidateComponent</text>
</g>
<!-- MergeCandidateComponent&#45;&gt;MergeModule -->
<g id="edge42" class="edge">
<title>MergeCandidateComponent&#45;&gt;MergeModule</title>
<path fill="none" stroke="black" d="M283,-229.05C283,-242.98 283,-259.8 283,-259.8 283,-259.8 1149.56,-259.8 1149.56,-259.8 1149.56,-259.8 1149.56,-260.68 1149.56,-260.68"/>
<polygon fill="black" stroke="black" points="1146.06,-258.64 1149.56,-268.64 1153.06,-258.64 1146.06,-258.64"/>
</g>
<!-- MergeCellComponent -->
<g id="node41" class="node">
<title>MergeCellComponent</title>
<polygon fill="#ffffb3" stroke="black" points="891.7,-228.8 750.3,-228.8 750.3,-192.8 891.7,-192.8 891.7,-228.8"/>
<text text-anchor="middle" x="821" y="-206.6" font-family="Times,serif" font-size="14.00">MergeCellComponent</text>
</g>
<!-- MergeCellComponent&#45;&gt;MergeModule -->
<g id="edge43" class="edge">
<title>MergeCellComponent&#45;&gt;MergeModule</title>
<path fill="none" stroke="black" d="M891.92,-210.8C969.92,-210.8 1084.35,-210.8 1084.35,-210.8 1084.35,-210.8 1084.35,-286.8 1084.35,-286.8 1084.35,-286.8 1117.76,-286.8 1117.76,-286.8"/>
<polygon fill="black" stroke="black" points="1117.76,-290.3 1127.76,-286.8 1117.76,-283.3 1117.76,-290.3"/>
</g>
<!-- MergePageComponent -->
<g id="node42" class="node">
<title>MergePageComponent</title>
<polygon fill="#ffffb3" stroke="black" points="732.58,-228.8 587.42,-228.8 587.42,-192.8 732.58,-192.8 732.58,-228.8"/>
<text text-anchor="middle" x="660" y="-206.6" font-family="Times,serif" font-size="14.00">MergePageComponent</text>
</g>
<!-- MergePageComponent&#45;&gt;MergeModule -->
<g id="edge44" class="edge">
<title>MergePageComponent&#45;&gt;MergeModule</title>
<path fill="none" stroke="black" d="M660,-229.29C660,-240.94 660,-253.8 660,-253.8 660,-253.8 1171.17,-253.8 1171.17,-253.8 1171.17,-253.8 1171.17,-258.76 1171.17,-258.76"/>
<polygon fill="black" stroke="black" points="1167.67,-258.76 1171.17,-268.76 1174.67,-258.76 1167.67,-258.76"/>
</g>
<!-- ErrorDisplayComponent -->
<g id="node44" class="node">
<title>ErrorDisplayComponent</title>
<polygon fill="#ffffb3" stroke="black" points="2686.42,-304.8 2531.58,-304.8 2531.58,-268.8 2686.42,-268.8 2686.42,-304.8"/>
<text text-anchor="middle" x="2609" y="-282.6" font-family="Times,serif" font-size="14.00">ErrorDisplayComponent</text>
</g>
<!-- ErrorDisplayComponent&#45;&gt;SharedModule -->
<g id="edge49" class="edge">
<title>ErrorDisplayComponent&#45;&gt;SharedModule</title>
<path fill="none" stroke="black" d="M2555.33,-268.65C2555.33,-255.06 2555.33,-238.8 2555.33,-238.8 2555.33,-238.8 1284.6,-238.8 1284.6,-238.8 1284.6,-238.8 1284.6,-237.82 1284.6,-237.82"/>
<polygon fill="black" stroke="black" points="1288.1,-239.01 1284.6,-229.01 1281.1,-239.01 1288.1,-239.01"/>
</g>
<!-- NewCandidateModalComponent -->
<g id="node45" class="node">
<title>NewCandidateModalComponent</title>
<polygon fill="#ffffb3" stroke="black" points="2513.58,-304.8 2312.42,-304.8 2312.42,-268.8 2513.58,-268.8 2513.58,-304.8"/>
<text text-anchor="middle" x="2413" y="-282.6" font-family="Times,serif" font-size="14.00">NewCandidateModalComponent</text>
</g>
<!-- NewCandidateModalComponent&#45;&gt;SharedModule -->
<g id="edge50" class="edge">
<title>NewCandidateModalComponent&#45;&gt;SharedModule</title>
<path fill="none" stroke="black" d="M2319.81,-268.76C2319.81,-256.24 2319.81,-241.8 2319.81,-241.8 2319.81,-241.8 1273.66,-241.8 1273.66,-241.8 1273.66,-241.8 1273.66,-238.83 1273.66,-238.83"/>
<polygon fill="black" stroke="black" points="1277.16,-238.83 1273.66,-228.83 1270.16,-238.83 1277.16,-238.83"/>
</g>
<!-- SignInModalComponent -->
<g id="node46" class="node">
<title>SignInModalComponent</title>
<polygon fill="#ffffb3" stroke="black" points="2294.72,-304.8 2139.28,-304.8 2139.28,-268.8 2294.72,-268.8 2294.72,-304.8"/>
<text text-anchor="middle" x="2217" y="-282.6" font-family="Times,serif" font-size="14.00">SignInModalComponent</text>
</g>
<!-- SignInModalComponent&#45;&gt;SharedModule -->
<g id="edge51" class="edge">
<title>SignInModalComponent&#45;&gt;SharedModule</title>
<path fill="none" stroke="black" d="M2144.54,-268.74C2144.54,-257.36 2144.54,-244.8 2144.54,-244.8 2144.54,-244.8 1262.72,-244.8 1262.72,-244.8 1262.72,-244.8 1262.72,-238.99 1262.72,-238.99"/>
<polygon fill="black" stroke="black" points="1266.22,-238.99 1262.72,-228.99 1259.22,-238.99 1266.22,-238.99"/>
</g>
<!-- NavbarComponent -->
<g id="node50" class="node">
<title>NavbarComponent</title>
<polygon fill="#ffffb3" stroke="black" points="2998.03,-304.8 2875.97,-304.8 2875.97,-268.8 2998.03,-268.8 2998.03,-304.8"/>
<text text-anchor="middle" x="2937" y="-282.6" font-family="Times,serif" font-size="14.00">NavbarComponent</text>
</g>
<!-- NavbarComponent&#45;&gt;SystemModule -->
<g id="edge56" class="edge">
<title>NavbarComponent&#45;&gt;SystemModule</title>
<path fill="none" stroke="black" d="M2932.17,-268.52C2932.17,-252.85 2932.17,-232.8 2932.17,-232.8 2932.17,-232.8 1192.78,-232.8 1192.78,-232.8 1192.78,-232.8 1192.78,-232.42 1192.78,-232.42"/>
<polygon fill="black" stroke="black" points="1196.28,-238.97 1192.78,-228.97 1189.28,-238.97 1196.28,-238.97"/>
</g>
</g>
</svg>
